<?xml version="1.0" encoding="UTF-8" standalone="no"?>

<svg
   width="135.46667mm"
   height="135.46666mm"
   viewBox="0 0 135.46667 135.46666"
   version="1.1"
   id="logo"
   xmlns="http://www.w3.org/2000/svg">
  <defs
     id="defs1" />
  <g
     id="layer1">
    <g
       id="g19">
      <path
         id="circle1"
         d="M 133.22134,63.724403 C 138.47582,98.919364 115.43709,132.15282 77.598378,134.40531 35.089878,136.93578 -1.0008514,100.14587 1.6384754,57.558875 3.9583127,20.126988 36.068176,-3.0309063 70.405461,1.50223 101.65927,5.6282914 128.49904,32.093932 133.22134,63.724403 Z"
         style="fill:#000000;fill-opacity:1;stroke:none;stroke-width:2.219;stroke-miterlimit:4;stroke-dasharray:none" />
      <path
         id="bg"
         d="M 131.00152,64.072646 C 135.96635,98.136056 113.51439,130.05053 77.01249,132.04631 36.222141,134.27658 1.5782339,98.99394 3.89782,58.116995 5.948475,21.979292 36.810236,-0.59449015 70.065731,3.6914744 100.44063,7.6061883 126.52162,33.336435 131.00152,64.072646 Z"
         style="fill:#11c11e;fill-opacity:1;stroke:#ffffff;stroke-width:3.419;stroke-miterlimit:4;stroke-dasharray:none" />
      <path
         style="fill:#ffffff;stroke-width:0.999999"
         d="m 28.924633,59.290319 c -0.272318,16.436289 8.768131,32.480174 23.589113,41.241631 14.61595,8.64025 31.676736,8.27464 44.164883,-0.3964 11.726961,-8.142504 17.495211,-22.295738 15.790731,-36.930681 l -8.58554,-0.402281 c 1.17824,11.453518 -3.5376,22.303351 -12.723382,28.38055 -9.639519,6.377386 -22.504221,6.442297 -33.53286,-0.142786 C 46.482318,84.38564 39.536515,72.306727 39.531331,59.787304 Z"
         id="path12" />
      <path
         style="fill:#ffffff;fill-rule:evenodd;stroke:#11c11e;stroke-width:4.99999;stroke-dasharray:none;stroke-opacity:1"
         d="M 34.171457,71.380748 20.171321,47.10328 48.02046,48.844757 Z"
         id="arrow1" />
      <path
         style="fill:#ffffff;stroke-width:0.999999"
         d="M 112.46936,63.204869 C 110.84072,49.221185 102.53923,36.220007 90.503435,28.557304 78.326388,20.804668 63.414662,19.228135 51.00676,24.75657 37.839785,30.623215 29.183345,43.675865 28.924642,59.29032 l 10.606697,0.496984 c -0.005,-12.037232 6.431378,-22.221991 16.468826,-26.937668 9.585187,-4.503202 21.17793,-3.423562 30.75753,2.632483 9.492117,6.000742 15.989355,16.269981 17.126145,27.320469 z"
         id="path10" />
      <path
         style="fill:#ffffff;fill-rule:evenodd;stroke-width:0.999999"
         d="M 34.171457,71.380748 20.171321,47.10328 48.02046,48.844757 Z"
         id="path11" />
      <path
         style="fill:#ffffff;fill-rule:evenodd;stroke:#11c11e;stroke-width:4.99999;stroke-dasharray:none;stroke-opacity:1"
         d="M 107.06985,52.665644 120.84854,74.184905 97.525548,73.471658 Z"
         id="arrow2" />
      <path
         style="fill:#ffffff;fill-rule:evenodd;stroke-width:0.999999"
         d="M 107.06985,52.665644 120.84854,74.184905 97.525548,73.471658 Z"
         id="path13" />
      <path
         style="fill:#ffffff;stroke-width:0.999999"
         d="M 96.678629,100.13555 C 108.40559,91.993046 114.17384,77.839812 112.46936,63.204869 l -8.58554,-0.402281 c 1.17824,11.453518 -3.5376,22.303351 -12.723382,28.38055 z"
         id="path16" />
      <path
         style="fill:#ffffff;stroke-width:0.999999"
         d="M 51.00676,24.75657 C 37.839785,30.623215 29.183345,43.675865 28.924642,59.29032 l 10.606697,0.496984 c -0.005,-12.037232 6.431378,-22.221991 16.468826,-26.937668 z"
         id="path17" />
    </g>
  </g>
</svg>
