<?xml version="1.0" encoding="UTF-8" standalone="no"?>

<svg
    width="476px"
    height="421.36px"
    viewBox="0 0 340.57529 301.05835"
    version="1.1"
    id="svg1"
    xmlns="http://www.w3.org/2000/svg">
    <g>
        <path
                id="files"
                d="M 28.230835,0.00155029 C 26.26446,-0.0474843 24.327654,0.95077914 23.279199,2.7667562 L 0.73897298,41.807267 c -1.52502538,2.641422 -0.6126042,6.046606 2.02881672,7.571631 L 26.44283,63.047831 c 2.641421,1.525026 6.045112,0.611473 7.570081,-2.02985 l 2.934188,-5.08186 6.063712,3.500561 c 2.32853,1.344378 5.33532,0.538973 6.679696,-1.789555 l 5.200716,-9.007719 C 56.235599,46.31088 55.429682,43.30409 53.101152,41.959713 L 47.037956,38.459151 56.553137,21.97747 c 1.524969,-2.641323 0.613024,-6.044595 -2.0283,-7.569564 L 30.849797,0.73897298 C 30.024383,0.2624202 29.124642,0.02383875 28.230835,0.00155029 Z m 68.115222,0 C 94.379682,-0.0474843 92.442876,0.95077914 91.394421,2.7667562 L 68.854195,41.807267 c -1.525025,2.641422 -0.612604,6.046606 2.028817,7.571631 l 23.675041,13.668933 c 2.64142,1.525026 6.045117,0.611473 7.570077,-2.02985 l 2.93419,-5.08186 6.0632,3.500561 c 2.32853,1.344378 5.33583,0.538973 6.68021,-1.789555 l 5.2002,-9.007719 c 1.34438,-2.328528 0.53897,-5.335835 -1.78956,-6.680212 l -6.06319,-3.500562 9.51518,-16.481164 c 1.52497,-2.641323 0.61302,-6.044595 -2.0283,-7.569564 L 98.965019,0.73897298 C 98.139605,0.2624202 97.239864,0.02383875 96.346057,0.00155029 Z m 68.114703,0 c -1.96637,-0.04903459 -3.90318,0.94922885 -4.95163,2.76520591 L 136.9689,41.807267 c -1.52502,2.641422 -0.6126,6.046606 2.02882,7.571631 l 23.67504,13.668933 c 2.64142,1.525026 6.04563,0.611473 7.5706,-2.02985 l 2.93418,-5.08186 6.0632,3.500561 c 2.32853,1.344378 5.33532,0.538973 6.67969,-1.789555 l 5.20072,-9.007719 c 1.34438,-2.328528 0.53898,-5.335835 -1.78955,-6.680212 l -6.06372,-3.500562 9.5157,-16.481164 c 1.52497,-2.641323 0.61303,-6.044595 -2.0283,-7.569564 L 167.08024,0.73897298 C 166.25483,0.2624202 165.35457,0.02383875 164.46076,0.00155029 Z m 68.11522,0 C 230.60961,-0.0474843 228.6728,0.95077914 227.62435,2.7667562 L 205.08412,41.807267 c -1.52502,2.641422 -0.6126,6.046606 2.02882,7.571631 l 23.67504,13.668933 c 2.64142,1.525026 6.04511,0.611473 7.57008,-2.02985 l 2.93419,-5.08186 6.06371,3.500561 c 2.32853,1.344378 5.33533,0.538973 6.6797,-1.789555 l 5.20071,-9.007719 c 1.34438,-2.328528 0.53846,-5.335835 -1.79007,-6.680212 l -6.06319,-3.500562 9.51518,-16.481164 c 1.52497,-2.641323 0.61303,-6.044595 -2.0283,-7.569564 L 235.19495,0.73897298 C 234.36953,0.2624202 233.46979,0.02383875 232.57598,0.00155029 Z m 68.11523,0 c -1.96638,-0.04903459 -3.90319,0.94922885 -4.95164,2.76520591 L 273.19934,41.807267 c -1.52502,2.641422 -0.6126,6.046606 2.02882,7.571631 l 23.67504,13.668933 c 2.64142,1.525026 6.04511,0.611473 7.57008,-2.02985 l 2.93419,-5.08186 6.0632,3.500561 c 2.32853,1.344378 5.33584,0.538973 6.68021,-1.789555 l 5.20072,-9.007719 c 1.34438,-2.328528 0.53845,-5.335835 -1.79008,-6.680212 l -6.06319,-3.500562 9.51518,-16.481164 c 1.52497,-2.641323 0.61303,-6.044595 -2.0283,-7.569564 L 303.31017,0.73897298 C 302.48476,0.2624202 301.58501,0.02383875 300.69121,0.00155029 Z M 27.850496,2.3450765 c 0.610475,-0.040766 1.242235,0.096925 1.822628,0.432015 L 53.348165,16.445508 c 1.547713,0.893573 2.060942,2.807576 1.16737,4.35529 L 44.999837,37.281962 27.118758,26.958561 c -0.727665,-0.420117 -1.521721,-0.630252 -2.310453,-0.649573 -1.73554,-0.0427 -3.446003,0.837724 -4.370276,2.438611 l -5.200716,9.007719 c -0.840248,1.455353 -0.840195,3.175892 -0.153479,4.589901 l 5.17e-4,5.17e-4 c 0.205974,0.423965 0.473618,0.820685 0.798917,1.174088 0.325392,0.353541 0.708551,0.664153 1.14515,0.916223 l 17.881079,10.323401 -2.934188,5.082377 c -0.893573,1.547714 -2.80819,2.061405 -4.355806,1.167888 L 3.9444621,47.34078 C 2.3968458,46.447263 1.8835748,44.531557 2.7770915,42.98394 L 25.316801,3.9434285 c 0.558447,-0.9672599 1.516237,-1.5304086 2.533695,-1.598352 z m 68.115223,0 c 0.610475,-0.040766 1.242235,0.096925 1.822627,0.432015 L 121.46339,16.445508 c 1.54772,0.893573 2.06042,2.807576 1.16685,4.35529 L 113.11506,37.281962 95.23398,26.958561 c -0.436599,-0.25207 -0.897454,-0.42879 -1.366325,-0.533817 -0.156309,-0.03502 -0.313157,-0.06183 -0.470772,-0.08113 -0.15759,-0.01928 -0.31561,-0.03076 -0.473356,-0.03462 -1.73554,-0.0427 -3.44652,0.837724 -4.370793,2.438611 l -5.200199,9.007719 c -0.840248,1.455353 -0.840195,3.175892 -0.153479,4.589901 0.137318,0.28292 0.301907,0.553387 0.492993,0.807186 0.09552,0.12685 0.197955,0.24956 0.306441,0.367419 0.325392,0.353541 0.708034,0.664153 1.144633,0.916223 l 17.881077,10.323401 -2.93367,5.082377 c -0.893574,1.547714 -2.808706,2.061405 -4.356322,1.167888 L 72.059167,47.34078 C 70.51155,46.447263 69.998281,44.531557 70.891797,42.98394 L 93.432023,3.9434285 c 0.558448,-0.9672599 1.516237,-1.5304086 2.533696,-1.598352 z m 68.114701,0 c 0.61048,-0.040766 1.24276,0.096925 1.82315,0.432015 l 23.67504,13.6684165 c 1.54771,0.893573 2.06042,2.807576 1.16685,4.35529 L 181.23028,37.281962 163.3492,26.958561 c -0.58213,-0.336094 -1.20725,-0.537816 -1.83761,-0.614949 -0.15745,-0.01928 -0.31575,-0.03073 -0.47336,-0.03462 -0.15757,-0.0038 -0.31522,-3.84e-4 -0.4718,0.01085 -1.56793,0.112288 -3.05822,0.972407 -3.89847,2.427759 l -5.20072,9.007719 c -0.84024,1.455353 -0.84019,3.175892 -0.15348,4.589901 0.41181,0.848551 1.07118,1.586566 1.94459,2.090828 l 17.88107,10.323401 -2.93418,5.082377 c -0.89357,1.547714 -2.8082,2.061405 -4.35581,1.167888 L 140.17439,47.34078 c -1.54761,-0.893517 -2.06089,-2.809223 -1.16737,-4.35684 L 161.54725,3.9434285 c 0.55844,-0.9672599 1.51572,-1.5304086 2.53317,-1.598352 z m 68.11523,0 c 0.61047,-0.040766 1.24223,0.096925 1.82262,0.432015 l 23.67556,13.6684165 c 1.54771,0.893573 2.06043,2.807576 1.16686,4.35529 l -9.5157,16.481164 -17.88108,-10.323401 c -0.72766,-0.420117 -1.52172,-0.630252 -2.31046,-0.649573 -1.73553,-0.0427 -3.446,0.837724 -4.37027,2.438611 l -5.20072,9.007719 c -0.84024,1.455353 -0.84019,3.175892 -0.15348,4.589901 l 5.2e-4,5.17e-4 c 0.20597,0.423965 0.47362,0.820685 0.79892,1.174088 0.32539,0.353541 0.70855,0.664153 1.14515,0.916223 l 17.88108,10.323401 -2.93419,5.082377 c -0.89357,1.547714 -2.8082,2.061405 -4.35581,1.167888 L 208.28961,47.34078 c -1.54761,-0.893517 -2.06089,-2.809223 -1.16737,-4.35684 L 229.66195,3.9434285 c 0.55844,-0.9672599 1.51624,-1.5304086 2.5337,-1.598352 z m 68.11522,0 c 0.61047,-0.040766 1.24223,0.096925 1.82263,0.432015 l 23.67504,13.6684165 c 1.54771,0.893573 2.06042,2.807576 1.16685,4.35529 l -9.51518,16.481164 -17.88108,-10.323401 c -0.72766,-0.420117 -1.52172,-0.630252 -2.31045,-0.649573 -1.73554,-0.0427 -3.44652,0.837724 -4.3708,2.438611 l -5.2002,9.007719 c -0.84024,1.455353 -0.84019,3.175892 -0.15347,4.589901 0.13731,0.28292 0.3019,0.553387 0.49299,0.807186 0.0955,0.12685 0.19795,0.24956 0.30644,0.367419 0.32539,0.353541 0.70803,0.664153 1.14463,0.916223 l 17.88108,10.323401 -2.93367,5.082377 c -0.89357,1.547714 -2.80871,2.061405 -4.35632,1.167888 L 276.40432,47.34078 c -1.54761,-0.893517 -2.06089,-2.809223 -1.16737,-4.35684 L 297.77717,3.9434285 c 0.55845,-0.9672599 1.51624,-1.5304086 2.5337,-1.598352 z M 24.491012,28.651481 c 0.485272,-0.03217 0.988018,0.07734 1.451074,0.344682 l 25.982393,15.001151 c 1.234815,0.712921 1.641547,2.230607 0.928626,3.465422 l -5.2002,9.007719 c -0.712921,1.234814 -2.231123,1.641546 -3.465938,0.928625 L 38.123771,53.898519 18.204574,42.397929 c -1.234815,-0.712921 -1.641029,-2.230608 -0.928109,-3.465422 l 5.200199,-9.007719 c 0.445576,-0.771759 1.205561,-1.219685 2.014348,-1.273307 z m 68.115222,0 c 0.485272,-0.03217 0.988018,0.07734 1.451074,0.344682 L 120.0397,43.997314 c 1.23481,0.712921 1.64155,2.230607 0.92863,3.465422 l -5.20072,9.007719 c -0.71292,1.234814 -2.2306,1.641546 -3.46542,0.928625 l -6.0632,-3.500561 -19.919194,-11.50059 C 85.08498,41.685008 84.67825,40.167321 85.39117,38.932507 l 5.200716,-9.007719 c 0.356371,-0.617253 0.91362,-1.027771 1.536341,-1.194759 h 5.16e-4 c 0.155728,-0.04173 0.315733,-0.06782 0.477491,-0.07855 z m 68.115226,0 c 0.15645,-0.01037 0.31465,-0.0047 0.47284,0.01499 0.005,6.48e-4 0.0103,-1.63e-4 0.0155,5.17e-4 h 5.1e-4 c 0.32708,0.04283 0.65352,0.150949 0.96222,0.329179 l 19.91868,11.50059 6.06371,3.500561 c 1.23482,0.712921 1.64155,2.230607 0.92863,3.465422 l -5.20072,9.007719 c -0.71292,1.234814 -2.2306,1.641546 -3.46542,0.928625 l -6.06371,-3.500561 -19.91868,-11.50059 c -1.23482,-0.712921 -1.64155,-2.230608 -0.92863,-3.465422 l 5.20072,-9.007719 c 0.35637,-0.617253 0.91362,-1.027771 1.53634,-1.194759 h 5.2e-4 c 0.15572,-0.04173 0.31573,-0.06782 0.47749,-0.07855 z m 68.1147,0 c 0.15646,-0.01037 0.31516,-0.0047 0.47336,0.01499 0.005,6.47e-4 0.0103,-1.62e-4 0.0155,5.17e-4 h 5.2e-4 c 0.32707,0.04283 0.65299,0.150949 0.9617,0.329179 l 25.98239,15.001151 c 1.23482,0.712921 1.64154,2.230607 0.92862,3.465422 l -5.20019,9.007719 c -0.71292,1.234814 -2.23061,1.641546 -3.46543,0.928625 l -6.06371,-3.500561 -19.9192,-11.50059 c -1.23482,-0.712921 -1.64103,-2.230608 -0.92811,-3.465422 l 5.2002,-9.007719 c 0.44558,-0.771759 1.20556,-1.219685 2.01435,-1.273307 z m 68.11522,0 c 0.16176,-0.01072 0.32532,-0.0059 0.48886,0.0155 0.1636,0.02145 0.32672,0.05897 0.48783,0.113688 h 5.1e-4 c 0.16107,0.0547 0.31953,0.126376 0.47388,0.215491 l 25.98239,15.001151 c 1.23482,0.712921 1.64155,2.230607 0.92863,3.465422 l -5.20072,9.007719 c -0.71292,1.234814 -2.2306,1.641546 -3.46542,0.928625 l -6.0632,-3.500561 -19.91919,-11.50059 c -1.23482,-0.712921 -1.64155,-2.230608 -0.92863,-3.465422 l 5.20072,-9.007719 c 0.35637,-0.617253 0.91361,-1.027771 1.53634,-1.194759 h 5.1e-4 c 0.15573,-0.04173 0.31574,-0.06782 0.47749,-0.07855 z m -64.71439,4.768701 -0.77567,1.344104 2.20865,1.275375 -4.10414,7.109643 1.44074,0.831991 4.10466,-7.109644 2.20917,1.275891 0.77618,-1.344104 z m 68.30332,0.109038 -4.88032,8.45323 1.40767,0.812871 2.31407,-4.007508 c 0.39697,-0.687567 0.75874,-1.33933 1.0945,-1.966805 l -0.63923,2.803964 1.19114,0.687813 2.32337,-2.129586 c -0.19375,0.305636 -0.38904,0.611904 -0.57774,0.916223 l -5.2e-4,0.001 -0.001,0.0026 c -0.27394,0.457446 -0.51465,0.865343 -0.72244,1.225248 l -2.31355,4.007507 1.40766,0.81287 4.88084,-8.45323 -1.85777,-1.072803 -2.58744,2.39727 0.82114,-3.416846 z m -203.980829,0.209806 -3.42253,5.927287 c -0.259979,0.450297 -0.556673,0.696517 -0.903304,0.793233 -0.33432,0.09342 -0.694045,0.03759 -1.123446,-0.210323 -0.428317,-0.247289 -0.65934,-0.533198 -0.752926,-0.874882 -0.08195,-0.343194 -0.01529,-0.721659 0.24443,-1.171505 l 0.128157,-0.222209 -1.441255,-0.83199 -0.128158,0.221692 c -0.455856,0.789565 -0.593572,1.58814 -0.380855,2.34611 0.212961,0.758846 0.75278,1.383562 1.567863,1.85415 0.807497,0.466209 1.615185,0.619425 2.377633,0.425297 l 0.0016,-5.17e-4 c 0.769447,-0.190276 1.395645,-0.707389 1.851566,-1.497066 l 3.422014,-5.927287 z m -67.387618,0.791683 c -0.187221,0.007 -0.372597,0.03485 -0.555522,0.0832 -0.737513,0.194932 -1.347387,0.728488 -1.817977,1.543575 l -1.963187,3.400826 c -0.47059,0.815086 -0.628856,1.610972 -0.428915,2.347143 0.198364,0.730366 0.706741,1.328243 1.471745,1.769918 0.765004,0.441676 1.536898,0.583036 2.268595,0.389641 0.737513,-0.194932 1.347903,-0.729523 1.818494,-1.544609 l 1.970422,-3.412712 c 0.466586,-0.808151 0.620906,-1.598779 0.421163,-2.334224 -0.198365,-0.730365 -0.70674,-1.328242 -1.471744,-1.769918 -0.573754,-0.331256 -1.151411,-0.493989 -1.713074,-0.47284 z m 136.439217,0.0047 c -0.4905,-0.02594 -0.95508,0.07835 -1.37253,0.312125 -0.42038,0.235423 -0.76583,0.59061 -1.02991,1.047998 -0.31939,0.553211 -0.44854,1.146113 -0.37413,1.747181 l 5.1e-4,0.0015 v 0.0031 c 0.0872,0.597945 0.36863,1.144179 0.82372,1.616439 l 0.001,5.17e-4 1.03146,1.049032 0.001,5.16e-4 c 0.23907,0.240379 0.35581,0.48506 0.38034,0.762228 v 0.0047 l 5.2e-4,0.0046 c 0.0347,0.279999 -0.0219,0.545871 -0.18449,0.82734 -0.21768,0.377026 -0.48739,0.586653 -0.84491,0.675928 -0.35483,0.0886 -0.71528,0.02986 -1.12861,-0.208773 -0.43068,-0.248655 -0.68449,-0.541321 -0.80564,-0.888835 -0.11609,-0.351271 -0.0743,-0.694092 0.15607,-1.092956 l 0.12816,-0.221692 -1.44126,-0.832507 -0.12816,0.222208 c -0.4413,0.764351 -0.55192,1.552027 -0.30075,2.300118 0.25026,0.745367 0.8089,1.361635 1.62884,1.83503 0.79276,0.457701 1.58853,0.614798 2.34817,0.441317 0.76014,-0.173596 1.37511,-0.661079 1.80764,-1.41025 0.34353,-0.595007 0.48353,-1.222619 0.40773,-1.854667 -0.0645,-0.637305 -0.35054,-1.216112 -0.83716,-1.706872 l -0.001,-0.001 -1.05523,-1.075903 -0.001,-0.001 c -0.20745,-0.212597 -0.31565,-0.42973 -0.35191,-0.668693 -0.0249,-0.243733 0.0256,-0.478788 0.17105,-0.730704 0.18295,-0.316879 0.40644,-0.487214 0.71313,-0.558106 l 0.002,-5.17e-4 h 0.003 c 0.31135,-0.07719 0.61534,-0.02884 0.96066,0.170533 0.34532,0.199372 0.54445,0.441745 0.64027,0.756542 l 5.2e-4,0.0021 5.2e-4,0.0016 c 0.0984,0.305748 0.0653,0.584803 -0.11679,0.900203 l -0.12816,0.222209 1.44126,0.83199 0.12816,-0.222208 c 0.26093,-0.451953 0.38878,-0.926272 0.36948,-1.406633 -0.0147,-0.48071 -0.16367,-0.93688 -0.43718,-1.350822 -2.2e-4,-3.49e-4 -9.5e-4,-6.64e-4 -0.001,-0.001 -0.26551,-0.421985 -0.64809,-0.774522 -1.1343,-1.055233 l -5.2e-4,5.17e-4 c -0.47934,-0.276745 -0.97327,-0.430151 -1.47071,-0.449068 z m -65.880733,1.034562 -4.880839,8.453747 1.440222,0.830957 1.900142,-3.290755 1.378211,0.795817 c 0.793487,0.458123 1.591727,0.610284 2.349207,0.423747 0.76745,-0.189222 1.38738,-0.6903 1.8278,-1.453141 0.43953,-0.761273 0.56262,-1.546063 0.33951,-2.297534 -0.21239,-0.756782 -0.7416,-1.377003 -1.53582,-1.835547 z m -70.269613,0.54622 c 0.20155,0.01074 0.4156,0.08022 0.655257,0.218591 0.391555,0.226064 0.587677,0.478574 0.654741,0.779797 l 5.16e-4,0.0036 0.001,0.0036 c 0.0764,0.29944 0.01859,0.640456 -0.221175,1.05575 l -2.090829,3.620967 c -0.23977,0.415294 -0.50893,0.640799 -0.813387,0.731222 -0.289634,0.08632 -0.606605,0.03972 -0.999422,-0.187069 -0.383635,-0.221492 -0.5849,-0.472557 -0.662492,-0.773596 -0.07353,-0.308611 -0.0116,-0.653848 0.227893,-1.068669 l 2.090312,-3.620967 c 0.23977,-0.415294 0.504496,-0.636298 0.802018,-0.719853 l 0.0021,-5.17e-4 0.0016,-5.17e-4 c 0.114341,-0.03396 0.230986,-0.04882 0.351916,-0.04237 z m 141.168646,1.061434 -2.68873,9.718786 1.70481,0.984436 7.08432,-7.181473 -1.49138,-0.86093 -4.60747,4.822962 c -0.21937,0.226177 -0.41089,0.430251 -0.60565,0.638204 0.0876,-0.265046 0.17568,-0.522991 0.26148,-0.824756 l 1.8216,-6.443535 z m 68.23614,0.06976 -0.77618,1.344104 2.20917,1.275374 -4.10466,7.109127 1.44126,0.831991 4.10466,-7.109127 2.20916,1.275374 0.77567,-1.344104 z m 68.52347,0.235644 -4.88032,8.453748 1.44074,0.831991 1.90014,-3.291272 1.37873,0.795817 c 0.79349,0.458123 1.59069,0.609767 2.34817,0.42323 0.76745,-0.189221 1.38738,-0.690301 1.8278,-1.453142 0.43952,-0.761273 0.56211,-1.546063 0.339,-2.297534 -0.21238,-0.756782 -0.74057,-1.376486 -1.53479,-1.83503 z m -206.9884,0.251148 1.37873,0.795817 c 0.38903,0.224606 0.60158,0.492406 0.68936,0.834574 l 5.2e-4,0.0021 5.1e-4,0.0016 c 0.0937,0.345135 0.0386,0.700522 -0.19843,1.111043 -0.23238,0.402503 -0.51226,0.628503 -0.86558,0.727087 -0.34022,0.09507 -0.67913,0.04477 -1.06816,-0.179834 l -1.378206,-0.795817 z m -64.57642,0.626318 c -0.188518,0.0041 -0.375308,0.02874 -0.559139,0.0739 -0.736401,0.180882 -1.336483,0.678612 -1.775602,1.439188 l -2.090829,3.62092 c -0.439119,0.760576 -0.570703,1.530596 -0.359151,2.258777 0.211243,0.727118 0.732381,1.324804 1.510502,1.774052 0.764243,0.441237 1.534706,0.587991 2.268596,0.407727 l 0.0021,-5.17e-4 5.16e-4,-10e-4 c 0.738488,-0.188335 1.338895,-0.684959 1.774052,-1.438672 l 1.281059,-2.218986 -3.075264,-1.775602 -0.775664,1.344104 1.634009,0.943095 -0.505395,0.875399 c -0.239081,0.414101 -0.508729,0.637212 -0.820105,0.724503 l -0.0016,5.17e-4 -0.0021,5.17e-4 c -0.303628,0.09018 -0.625954,0.04365 -1.017509,-0.182418 -0.39048,-0.225444 -0.602126,-0.487443 -0.68988,-0.807702 -0.07966,-0.313005 -0.02177,-0.65814 0.217041,-1.07177 l 2.096513,-3.630786 c 0.238165,-0.412513 0.504642,-0.629839 0.807702,-0.711068 0.317243,-0.07848 0.651506,-0.02447 1.043864,0.202055 0.391555,0.226065 0.592907,0.482095 0.666626,0.790133 l 10e-4,0.0036 10e-4,0.0036 c 0.08255,0.303962 0.02721,0.643715 -0.211873,1.057816 l -0.128674,0.222209 1.441255,0.83199 0.128158,-0.222208 c 0.434588,-0.752729 0.563126,-1.51771 0.35295,-2.244308 -0.206001,-0.733218 -0.716559,-1.332893 -1.481563,-1.774568 -0.583591,-0.336936 -1.167156,-0.506844 -1.732711,-0.494544 z m 70.62101,1.086239 -4.88032,8.453747 5.08651,2.936772 0.77618,-1.344104 -3.65611,-2.110465 1.39062,-2.408639 3.26905,1.88774 0.76326,-1.321883 -3.26905,-1.887223 1.17512,-2.035535 3.65559,2.110982 0.77618,-1.344104 z m 201.6156,0.201021 1.37821,0.795817 c 0.38903,0.224606 0.60056,0.492406 0.68833,0.834575 l 5.2e-4,0.0016 5.2e-4,0.0021 c 0.0937,0.345135 0.0386,0.700005 -0.19844,1.110526 -0.23239,0.402503 -0.51226,0.628505 -0.86558,0.727088 -0.34022,0.09507 -0.67757,0.04581 -1.0666,-0.178801 l -1.37821,-0.795817 z m 5.93401,1.648995 -0.77618,1.344104 3.01945,1.743046 -2.70784,0.803052 -0.67283,1.165303 1.09657,0.633037 c 0.39839,0.230013 0.61626,0.50016 0.70694,0.834057 0.0907,0.333898 0.0378,0.674526 -0.19069,1.070219 l -0.31678,0.548804 c -0.22845,0.395694 -0.49696,0.611286 -0.83147,0.699699 -0.3345,0.08841 -0.67751,0.0352 -1.0759,-0.19482 -0.3984,-0.230012 -0.61573,-0.50016 -0.70642,-0.834058 -0.0907,-0.333897 -0.0393,-0.675042 0.18914,-1.070736 l 0.12815,-0.222208 -1.44074,-0.831991 -0.12867,0.222209 c -0.4356,0.754475 -0.56187,1.527208 -0.34778,2.264978 l 0.001,10e-4 -5.2e-4,10e-4 c 0.21905,0.730639 0.74662,1.331643 1.53169,1.784904 0.79203,0.457279 1.57885,0.615553 2.32183,0.439766 0.75344,-0.178615 1.36488,-0.67258 1.80092,-1.427819 l 0.31678,-0.548287 c 0.40869,-0.707866 0.54454,-1.429144 0.37723,-2.121318 -0.12819,-0.549237 -0.47251,-1.011254 -0.92397,-1.417484 l 2.80551,-0.833025 0.71159,-1.231966 z m -68.06045,0.03152 -4.88084,8.453747 1.44126,0.831991 2.05259,-3.555339 3.46904,2.002979 0.77514,-1.343071 -3.49022,-2.015381 1.2764,-2.211234 3.77703,2.180745 0.77618,-1.344104 z M 42.452189,42.187606 c -0.188411,0.0042 -0.374791,0.02823 -0.558622,0.07338 -0.7364,0.180882 -1.338035,0.678097 -1.777153,1.438672 l -2.090311,3.620968 c -0.439118,0.760576 -0.569671,1.531629 -0.358118,2.25981 0.211243,0.727118 0.730831,1.32377 1.508952,1.773019 0.764244,0.441236 1.535223,0.588507 2.269112,0.408243 l 0.0015,-5.16e-4 0.0021,-5.17e-4 c 0.738488,-0.188335 1.338895,-0.685476 1.774052,-1.439189 l 1.281059,-2.218986 -3.076298,-1.776119 -0.77618,1.344104 1.635042,0.944129 -0.504878,0.874882 c -0.239081,0.414101 -0.508729,0.637729 -0.820105,0.72502 l -0.0021,5.17e-4 -0.0016,5.17e-4 c -0.303628,0.09018 -0.626986,0.04261 -1.018542,-0.183452 -0.39048,-0.225444 -0.602127,-0.487444 -0.689881,-0.807702 -0.07969,-0.313022 -0.02177,-0.657623 0.217041,-1.071253 l 2.096513,-3.631303 c 0.238165,-0.412513 0.504127,-0.629838 0.807186,-0.711067 0.317244,-0.07848 0.652023,-0.02395 1.044381,0.202571 0.391556,0.226064 0.593941,0.482095 0.667659,0.790133 l 10e-4,0.0036 10e-4,0.0036 c 0.08255,0.303962 0.02669,0.643716 -0.21239,1.057817 l -0.128157,0.222209 1.441255,0.83199 0.128158,-0.222208 c 0.434449,-0.752487 0.562324,-1.517917 0.352433,-2.244308 l -5.17e-4,-0.0016 c -0.20631,-0.73236 -0.717689,-1.331698 -1.48208,-1.773019 -0.58359,-0.336936 -1.166443,-0.506512 -1.731677,-0.494026 z m 136.229931,0 c -0.18841,0.0042 -0.3748,0.02823 -0.55863,0.07338 -0.7364,0.180882 -1.33751,0.678097 -1.77663,1.438672 l -2.09083,3.620968 c -0.43912,0.760576 -0.56968,1.531629 -0.35812,2.25981 0.21124,0.727118 0.73134,1.32377 1.50947,1.773019 0.76424,0.441236 1.53471,0.588507 2.2686,0.408243 l 0.002,-5.16e-4 0.002,-5.17e-4 c 0.73848,-0.188335 1.3389,-0.685476 1.77405,-1.439189 l 1.28106,-2.218986 -3.0763,-1.776119 -0.77618,1.344104 1.63505,0.944129 -0.50488,0.874882 c -0.23908,0.414101 -0.50874,0.637729 -0.82011,0.72502 l -0.002,5.17e-4 -0.002,5.17e-4 c -0.30363,0.09018 -0.62698,0.04261 -1.01854,-0.183452 -0.39048,-0.225444 -0.60214,-0.487444 -0.68989,-0.807702 -0.0797,-0.313022 -0.0217,-0.657623 0.21705,-1.071253 l 2.09651,-3.631303 c 0.23816,-0.412513 0.50464,-0.629838 0.8077,-0.711067 0.31725,-0.07848 0.65151,-0.02395 1.04387,0.202571 0.39155,0.226064 0.59393,0.482095 0.66765,0.790133 l 0.001,0.0036 0.001,0.0036 c 0.0826,0.303962 0.0272,0.643716 -0.21187,1.057817 l -0.12868,0.222209 1.44126,0.83199 0.12816,-0.222208 c 0.43445,-0.752487 0.56284,-1.517917 0.35295,-2.244308 l -5.2e-4,-0.0016 c -0.20631,-0.73236 -0.71769,-1.331698 -1.48208,-1.773019 -0.58359,-0.336936 -1.16696,-0.506512 -1.73219,-0.494026 z m -64.80122,1.913061 c -0.18841,0.0042 -0.37479,0.02874 -0.55862,0.0739 -0.7364,0.180881 -1.337,0.678612 -1.77612,1.439188 l -2.09031,3.620968 c -0.43912,0.760576 -0.5707,1.530596 -0.35915,2.258777 0.21125,0.727118 0.73083,1.324287 1.50895,1.773535 0.76424,0.441236 1.53626,0.588508 2.27015,0.408244 l 5.1e-4,-0.001 0.002,-5.17e-4 c 0.73849,-0.188335 1.3389,-0.685475 1.77405,-1.439188 l 1.28106,-2.218986 -3.0763,-1.776119 -0.77566,1.344104 1.63504,0.944128 -0.50539,0.874882 c -0.23908,0.414101 -0.50874,0.63773 -0.82011,0.725021 l -0.002,5.16e-4 -0.002,5.17e-4 c -0.30363,0.09018 -0.62699,0.04261 -1.01854,-0.183451 -0.39048,-0.225444 -0.60058,-0.48693 -0.68833,-0.807186 -0.0797,-0.313023 -0.0233,-0.658138 0.21549,-1.071769 l 2.09651,-3.631303 c 0.23816,-0.412513 0.50568,-0.629322 0.80874,-0.710551 0.31725,-0.07848 0.65047,-0.02447 1.04283,0.202055 0.39155,0.226065 0.59445,0.482611 0.66817,0.790649 l 5.2e-4,0.0031 0.001,0.0036 c 0.0826,0.303962 0.0272,0.643716 -0.21187,1.057817 l -0.12816,0.222208 1.44126,0.831991 0.12815,-0.222209 c 0.43458,-0.752729 0.56262,-1.517708 0.35244,-2.244307 -0.206,-0.733218 -0.7176,-1.332893 -1.4826,-1.774569 -0.58359,-0.336936 -1.16644,-0.506512 -1.73168,-0.494027 z M 28.230835,75.225382 c -1.966375,-0.04903 -3.903181,0.949229 -4.951636,2.765206 L 0.73897298,117.03162 c -1.52502538,2.64142 -0.6126042,6.04608 2.02881672,7.57111 L 26.44283,138.27166 c 2.641421,1.52503 6.045112,0.61199 7.570081,-2.02933 l 2.934188,-5.08238 6.063712,3.50108 c 2.32853,1.34437 5.33532,0.53845 6.679696,-1.79007 l 5.200716,-9.00772 c 1.344376,-2.32853 0.538459,-5.33532 -1.790071,-6.6797 l -6.063196,-3.50056 9.515181,-16.481678 c 1.524969,-2.641323 0.613024,-6.044595 -2.0283,-7.569564 L 30.849797,75.962805 c -0.825414,-0.476553 -1.725155,-0.715134 -2.618962,-0.737423 z m 68.115222,0 c -1.966375,-0.04903 -3.903181,0.949229 -4.951636,2.765206 L 68.854195,117.03162 c -1.525025,2.64142 -0.612604,6.04609 2.028817,7.57111 l 23.675041,13.66893 c 2.64142,1.52502 6.045107,0.61199 7.570077,-2.02933 l 2.93419,-5.08186 6.0632,3.50056 c 2.32853,1.34438 5.33583,0.53846 6.68021,-1.79007 l 5.2002,-9.00772 c 1.34438,-2.32852 0.53897,-5.33533 -1.78956,-6.6797 l -6.06319,-3.50056 9.51518,-16.481678 c 1.52497,-2.641323 0.61302,-6.044595 -2.0283,-7.569564 L 98.965019,75.962805 c -0.825414,-0.476553 -1.725155,-0.715134 -2.618962,-0.737423 z m 68.114703,0 c -1.96637,-0.04903 -3.90318,0.949229 -4.95163,2.765206 L 136.9689,117.03162 c -1.52502,2.64142 -0.6126,6.04608 2.02882,7.57111 l 23.67504,13.66893 c 2.64142,1.52503 6.04563,0.612 7.5706,-2.02933 l 2.93367,-5.08186 6.06371,3.50056 c 2.32853,1.34438 5.33532,0.53846 6.67969,-1.79007 l 5.20072,-9.00772 c 1.34438,-2.32853 0.53898,-5.33532 -1.78955,-6.6797 l -6.06372,-3.50107 9.5157,-16.481168 c 1.52497,-2.641323 0.61303,-6.044595 -2.0283,-7.569564 L 167.08024,75.962805 c -0.82541,-0.476553 -1.72567,-0.715134 -2.61948,-0.737423 z m 68.11522,0 c -1.96637,-0.04903 -3.90318,0.949229 -4.95163,2.765206 l -22.54023,39.041032 c -1.52502,2.64142 -0.6126,6.04608 2.02882,7.57111 l 23.67504,13.66893 c 2.64142,1.52503 6.04511,0.61199 7.57008,-2.02933 l 2.93419,-5.08238 6.06371,3.50108 c 2.32853,1.34437 5.33533,0.53845 6.6797,-1.79007 l 5.20071,-9.00772 c 1.34438,-2.32853 0.53846,-5.33532 -1.79007,-6.6797 l -6.06319,-3.50056 9.51518,-16.481678 c 1.52497,-2.641323 0.61303,-6.044595 -2.0283,-7.569564 L 235.19495,75.962805 c -0.82542,-0.476553 -1.72516,-0.715134 -2.61897,-0.737423 z m 68.11523,0 c -1.96638,-0.04903 -3.90319,0.949229 -4.95164,2.765206 l -22.54023,39.041032 c -1.52502,2.64142 -0.6126,6.04609 2.02882,7.57111 l 23.67504,13.66893 c 2.64142,1.52502 6.04511,0.61199 7.57008,-2.02933 l 2.93419,-5.08186 6.0632,3.50056 c 2.32853,1.34438 5.33584,0.53846 6.68021,-1.79007 l 5.20072,-9.00772 c 1.34438,-2.32853 0.53845,-5.33532 -1.79008,-6.6797 l -6.06319,-3.50056 9.51518,-16.481678 c 1.52497,-2.641323 0.61303,-6.044595 -2.0283,-7.569564 L 303.31017,75.962805 c -0.82541,-0.476553 -1.72516,-0.715134 -2.61896,-0.737423 z m -68.49556,2.343527 c 0.61047,-0.04077 1.24223,0.09692 1.82262,0.432015 l 23.67556,13.668933 c 1.54771,0.893573 2.06043,2.807059 1.16686,4.354773 l -9.5157,16.48168 -17.88108,-10.32392 c -0.72766,-0.42012 -1.52172,-0.63025 -2.31046,-0.64957 -1.73553,-0.0427 -3.446,0.83773 -4.37027,2.43861 l -5.20072,9.00772 c -0.84024,1.45535 -0.84019,3.17589 -0.15348,4.5899 l 5.2e-4,5.2e-4 c 0.0686,0.14118 0.1437,0.27943 0.22583,0.41393 l 5.1e-4,5.1e-4 c 0.16442,0.26917 0.35577,0.52411 0.57258,0.75965 0.32539,0.35354 0.70855,0.66415 1.14515,0.91622 l 17.88108,10.3234 v 5.2e-4 l -2.93419,5.08186 c -0.89357,1.54772 -2.8082,2.0614 -4.35581,1.16788 l -23.67504,-13.66841 c -1.54761,-0.89352 -2.06089,-2.80974 -1.16737,-4.35736 l 22.53971,-39.040509 c 0.55844,-0.96726 1.51624,-1.530409 2.5337,-1.598352 z m 68.11522,0 c 0.61047,-0.04077 1.24223,0.09692 1.82263,0.432015 l 23.67504,13.668933 c 1.54771,0.893573 2.06042,2.807059 1.16685,4.354773 l -9.51518,16.48168 -17.88108,-10.32392 c -0.29106,-0.16804 -0.59303,-0.30254 -0.90072,-0.40462 -0.30772,-0.1021 -0.62115,-0.17173 -0.93638,-0.21033 -0.15759,-0.0193 -0.31561,-0.0308 -0.47335,-0.0346 -1.73554,-0.0427 -3.44652,0.83772 -4.3708,2.43861 l -5.2002,9.00772 c -0.84024,1.45536 -0.84019,3.17589 -0.15347,4.5899 v 5.2e-4 c 0.0686,0.14126 0.14417,0.27936 0.22634,0.41393 0.0823,0.13481 0.17106,0.26578 0.26665,0.39274 0.0955,0.12685 0.19795,0.24956 0.30644,0.36742 0.32539,0.35354 0.70803,0.66415 1.14463,0.91622 l 17.88108,10.3234 v 5.2e-4 l -2.93367,5.08186 c -0.89357,1.54772 -2.80871,2.0614 -4.35632,1.16788 l -23.67504,-13.66841 c -1.54761,-0.89352 -2.06089,-2.80974 -1.16737,-4.35736 l 22.54022,-39.040509 c 0.55845,-0.96726 1.51624,-1.530409 2.5337,-1.598352 z m -272.460374,5.16e-4 c 0.610475,-0.04077 1.242236,0.09641 1.822628,0.431499 l 23.675041,13.668933 c 1.547713,0.893573 2.060943,2.807575 1.16737,4.355289 L 44.999837,112.50631 27.118758,102.18239 c -0.727665,-0.42012 -1.521721,-0.63025 -2.310453,-0.64957 -1.73554,-0.0427 -3.446002,0.83773 -4.370276,2.43861 l -5.200716,9.00772 c -0.840248,1.45535 -0.840196,3.17589 -0.153479,4.5899 l 5.17e-4,5.2e-4 c 0.06859,0.14118 0.143697,0.27943 0.225826,0.41393 l 5.16e-4,5.1e-4 c 0.164418,0.26917 0.355766,0.52411 0.572575,0.75965 0.325392,0.35354 0.708551,0.66415 1.14515,0.91622 l 17.881079,10.3234 v 5.2e-4 l -2.934188,5.08186 c -0.893573,1.54772 -2.808189,2.0614 -4.355806,1.16788 L 3.9444621,122.56513 C 2.3968458,121.67161 1.8835748,119.75539 2.7770915,118.20777 L 25.316801,79.167261 c 0.558448,-0.96726 1.516237,-1.529892 2.533695,-1.597836 z m 68.115223,0 c 0.610475,-0.04077 1.242235,0.09641 1.822627,0.431499 l 23.675044,13.668933 c 1.54772,0.893573 2.06043,2.807575 1.16685,4.355289 l -9.51518,16.481164 -17.88108,-10.32392 c -0.436599,-0.25207 -0.897454,-0.42827 -1.366325,-0.5333 -0.156309,-0.035 -0.313157,-0.0623 -0.470772,-0.0816 -0.15759,-0.0193 -0.31561,-0.0308 -0.473356,-0.0346 -1.73554,-0.0427 -3.44652,0.83772 -4.370793,2.43861 l -5.200199,9.00772 c -0.840248,1.45536 -0.840195,3.17589 -0.153479,4.5899 v 5.2e-4 c 0.06862,0.14126 0.144171,0.27936 0.226343,0.41393 0.08228,0.13481 0.171064,0.26578 0.26665,0.39274 0.09552,0.12685 0.197955,0.24956 0.306441,0.36742 0.325392,0.35354 0.708034,0.66415 1.144633,0.91622 l 17.881077,10.3234 v 5.2e-4 l -2.93367,5.08186 c -0.893575,1.54771 -2.808706,2.0614 -4.356322,1.16788 L 72.059167,122.56513 c -1.547617,-0.89352 -2.060886,-2.80974 -1.16737,-4.35736 L 93.432023,79.167261 c 0.558448,-0.96726 1.516237,-1.529892 2.533696,-1.597836 z m 68.114701,0 c 0.61048,-0.04077 1.24276,0.09641 1.82315,0.431499 l 23.67504,13.668933 c 1.54771,0.893573 2.06042,2.807575 1.16685,4.355289 l -9.51518,16.481164 -17.88108,-10.32392 c -0.58213,-0.33609 -1.20725,-0.53781 -1.83761,-0.61495 -1.89138,-0.23158 -3.83533,0.65757 -4.84363,2.40399 l -5.20072,9.00772 c -0.84024,1.45535 -0.84019,3.17589 -0.15348,4.5899 l 5.2e-4,5.2e-4 c 0.0686,0.14118 0.14421,0.27943 0.22634,0.41393 0.41111,0.67356 0.98992,1.25618 1.71773,1.67638 l 17.88107,10.3234 v 5.2e-4 l -2.93418,5.08186 c -0.89357,1.54771 -2.8082,2.06139 -4.35581,1.16788 l -23.67504,-13.66841 c -1.54761,-0.89351 -2.06089,-2.80975 -1.16737,-4.35736 l 22.54023,-39.040509 c 0.55844,-0.96726 1.51572,-1.529892 2.53317,-1.597836 z M 24.491012,103.87531 c 0.485271,-0.0322 0.988018,0.0779 1.451074,0.3452 l 19.919197,11.50008 6.063196,3.50056 c 1.234815,0.71292 1.641546,2.23061 0.928626,3.46542 l -5.2002,9.00772 c -0.712921,1.23481 -2.231123,1.64154 -3.465938,0.92862 l -6.063196,-3.50056 -19.919197,-11.50007 c -1.234815,-0.71292 -1.64103,-2.23113 -0.928109,-3.46594 l 5.200199,-9.0072 c 0.445576,-0.77176 1.205561,-1.2202 2.014348,-1.27383 z m 68.115222,0 c 0.485272,-0.0322 0.988018,0.0779 1.451074,0.3452 l 19.919202,11.50008 6.06319,3.50056 c 1.23481,0.71292 1.64155,2.2306 0.92863,3.46542 l -5.20072,9.00772 c -0.71292,1.23481 -2.2306,1.64155 -3.46542,0.92862 l -6.0632,-3.50056 -19.919194,-11.50007 c -1.234816,-0.71292 -1.641546,-2.23113 -0.928626,-3.46594 l 5.200716,-9.0072 c 0.445575,-0.77177 1.205561,-1.22021 2.014348,-1.27383 z m 68.115226,0 c 0.15645,-0.0104 0.31465,-0.005 0.47284,0.015 0.005,6.5e-4 0.0103,-1.6e-4 0.0155,5.2e-4 h 5.1e-4 c 0.32708,0.0428 0.65352,0.15146 0.96222,0.32969 l 25.98239,15.00064 c 1.23482,0.71292 1.64155,2.2306 0.92863,3.46542 l -5.20072,9.00772 c -0.71292,1.23482 -2.2306,1.64154 -3.46542,0.92862 l -6.06371,-3.50056 -19.91868,-11.50007 c -1.23482,-0.71292 -1.64155,-2.23112 -0.92863,-3.46594 l 5.20072,-9.0072 c 0.44557,-0.77177 1.20556,-1.22021 2.01435,-1.27383 z m 68.1147,0 c 0.15646,-0.0104 0.31516,-0.005 0.47336,0.015 0.005,6.5e-4 0.0103,-1.6e-4 0.0155,5.2e-4 h 5.2e-4 c 0.32707,0.0428 0.65299,0.15146 0.9617,0.32969 l 19.91919,11.50008 6.0632,3.50056 c 1.23482,0.71292 1.64154,2.23061 0.92862,3.46542 l -5.20019,9.00772 c -0.71292,1.23481 -2.23061,1.64154 -3.46543,0.92862 l -6.06371,-3.50056 -19.9192,-11.50007 c -0.3087,-0.17823 -0.56572,-0.40737 -0.76636,-0.66921 -0.60151,-0.78547 -0.69631,-1.87085 -0.16175,-2.79673 l 5.2002,-9.00772 c 0.44558,-0.77176 1.20556,-1.21968 2.01435,-1.27331 z m 68.11522,0 c 0.16176,-0.0107 0.32532,-0.006 0.48886,0.0155 0.1636,0.0214 0.32672,0.0595 0.48783,0.1142 h 5.1e-4 c 0.16107,0.0547 0.31953,0.12638 0.47388,0.21549 l 19.9192,11.50008 6.06319,3.50056 c 1.23482,0.71292 1.64155,2.23061 0.92863,3.46542 l -5.20072,9.00772 c -0.71292,1.23481 -2.2306,1.64154 -3.46542,0.92862 l -6.0632,-3.50056 -19.91919,-11.50007 c -0.30871,-0.17823 -0.56573,-0.40737 -0.76637,-0.66921 -0.0384,-0.0501 -0.0644,-0.10672 -0.0987,-0.15917 -0.5023,-0.76942 -0.56407,-1.77065 -0.0636,-2.63756 l 5.20072,-9.00772 c 0.44557,-0.77176 1.20556,-1.21968 2.01434,-1.27331 z m -269.473471,4.52996 -3.86643,9.03924 1.64331,0.94826 3.806486,-4.97799 -2.456697,5.75727 1.644344,0.94982 5.919018,-7.8543 -1.326017,-0.76533 -3.712952,5.05809 2.454114,-5.78466 -1.465027,-0.84595 -3.761527,4.87568 2.490287,-5.60948 z m 136.832471,0.34778 -4.88083,8.45323 1.40818,0.81287 2.31355,-4.00699 c 0.39697,-0.68756 0.75927,-1.33985 1.09503,-1.96732 l -0.63924,2.80448 1.19114,0.68781 2.32337,-2.12958 c -0.19375,0.30563 -0.38904,0.61138 -0.57774,0.9157 l -5.2e-4,0.001 -0.001,0.002 c -0.27394,0.45745 -0.51516,0.86534 -0.72295,1.22525 l -2.31356,4.00751 1.40818,0.81287 4.88084,-8.45323 -1.85776,-1.0728 -2.58744,2.39727 0.82114,-3.41685 z m 136.22993,0 -4.88032,8.45323 1.40767,0.81287 2.31407,-4.00699 c 0.39697,-0.68757 0.75874,-1.33984 1.0945,-1.96732 l -0.63923,2.80448 1.19114,0.6873 2.32337,-2.12907 c -0.19375,0.30564 -0.38904,0.61138 -0.57774,0.9157 l -5.2e-4,0.001 -0.001,0.002 c -0.27394,0.45745 -0.51465,0.86535 -0.72244,1.22525 l -2.31355,4.00751 1.40766,0.81287 4.88084,-8.45323 -1.85777,-1.0728 -2.58744,2.39727 0.82114,-3.41685 z m -204.125006,0.12713 -4.880323,8.45323 1.441256,0.8325 1.900142,-3.29127 1.378211,0.79582 c 0.793491,0.45812 1.591725,0.61029 2.34921,0.42375 0.767448,-0.18922 1.387371,-0.69031 1.8278,-1.45315 0.43987,-0.76187 0.56127,-1.54809 0.33744,-2.30011 -0.21291,-0.75549 -0.74053,-1.375 -1.533754,-1.83297 z m 137.126516,0.87798 c -0.18852,0.004 -0.3748,0.0287 -0.55863,0.0739 -0.7364,0.18088 -1.337,0.6786 -1.77611,1.43918 l -2.09032,3.62097 c -0.43912,0.76057 -0.5707,1.5306 -0.35915,2.25878 0.21124,0.72712 0.73187,1.32481 1.50999,1.77405 0.76424,0.44124 1.53522,0.58799 2.26911,0.40773 l 5.2e-4,-10e-4 0.002,-5.1e-4 c 0.73849,-0.18834 1.3389,-0.68496 1.77406,-1.43867 l 1.28106,-2.21899 -3.0763,-1.77612 -0.77618,1.3441 1.63556,0.94413 -0.5054,0.87489 c -0.23908,0.41411 -0.50872,0.63773 -0.8201,0.72502 h -0.002 l -0.002,5.1e-4 c -0.30363,0.0902 -0.62596,0.0436 -1.01751,-0.18242 -0.39048,-0.22545 -0.60212,-0.48745 -0.68988,-0.8077 -0.0797,-0.31303 -0.0217,-0.65762 0.21704,-1.07125 l 2.09652,-3.6313 c 0.23817,-0.41251 0.50464,-0.62984 0.8077,-0.71107 0.31724,-0.0785 0.6515,-0.0239 1.04386,0.20257 0.39156,0.22607 0.59292,0.48158 0.66663,0.78962 l 0.001,0.004 0.001,0.004 c 0.0825,0.30396 0.0272,0.64372 -0.21188,1.05782 l -0.12816,0.22169 1.44074,0.83251 0.12868,-0.22221 c 0.43459,-0.75273 0.56261,-1.51822 0.35243,-2.24482 -0.206,-0.73322 -0.71655,-1.33237 -1.48156,-1.77405 v -10e-4 c -0.58359,-0.33694 -1.16716,-0.50684 -1.73271,-0.49454 z m -136.454723,1.28674 1.378211,0.79582 c 0.38903,0.2246 0.602105,0.49292 0.68988,0.83509 l 5.17e-4,0.002 5.17e-4,0.002 c 0.09374,0.34513 0.03805,0.70052 -0.198955,1.11104 -0.232385,0.40251 -0.512259,0.62851 -0.86558,0.72709 -0.340215,0.0951 -0.678605,0.0448 -1.067635,-0.17984 l -1.378211,-0.79581 z m 5.934003,1.649 -4.880837,8.45323 1.408183,0.81338 2.725414,-4.72064 c 0.1575,-0.27281 0.31426,-0.56011 0.46922,-0.86248 l 0.003,-0.005 -1.22525,6.72621 1.70739,0.98547 4.88032,-8.45375 -1.40767,-0.81287 -2.72541,4.72013 c -0.14401,0.24944 -0.29524,0.52001 -0.45114,0.80512 l 1.20458,-6.66368 z m 68.13796,0.0129 -4.88084,8.45374 1.44126,0.83199 1.90014,-3.29127 1.37821,0.79582 c 0.79349,0.45812 1.5907,0.60977 2.34818,0.42323 0.76745,-0.18922 1.38737,-0.6903 1.82779,-1.45314 0.43952,-0.76127 0.56263,-1.54607 0.33952,-2.29754 -0.21238,-0.75678 -0.74057,-1.37596 -1.53479,-1.83451 z m 136.22993,0 -4.88032,8.45374 1.44074,0.83199 2.13475,-3.69693 0.7984,0.46096 -0.25735,4.78058 1.63866,0.9462 0.30024,-5.6503 4.47311,-2.86494 -1.58491,-0.91519 -3.77807,2.41225 -0.83302,-0.48059 1.98902,-3.44527 z m -67.97105,0.0832 -0.77618,1.34411 1.64538,0.94981 -3.32848,5.76554 -1.64537,-0.95033 -0.77618,1.34462 4.75474,2.74505 0.77618,-1.3441 -1.64641,-0.95085 3.32848,-5.76502 1.64641,0.95033 0.77618,-1.3441 z m -202.803637,0.88987 -7.095691,7.17476 1.480013,0.85473 1.759582,-1.82211 2.090312,1.20664 -0.698149,2.43499 1.468644,0.84801 2.67684,-9.72602 z m 135.216557,1.19218 1.37821,0.79582 c 0.38903,0.2246 0.60056,0.49188 0.68833,0.83405 l 5.1e-4,0.002 5.2e-4,0.002 c 0.0937,0.34513 0.0386,0.7 -0.19844,1.11052 -0.23239,0.4025 -0.51278,0.6285 -0.8661,0.72709 -0.34022,0.0951 -0.67705,0.0458 -1.06608,-0.1788 l -1.37873,-0.79582 z m -131.098463,1.18546 -3.86643,9.03924 1.64331,0.94878 3.808553,-4.97903 -2.457731,5.75882 1.644344,0.9493 5.917985,-7.8543 -1.324983,-0.76481 -3.710368,5.05344 2.452047,-5.78053 -1.465544,-0.84543 -3.761528,4.87568 2.490804,-5.61 z m 272.755443,0.17053 -2.68821,9.7193 1.70429,0.98392 7.08432,-7.18096 -1.49241,-0.86196 -4.60747,4.82296 c -0.21993,0.22674 -0.41099,0.43288 -0.60617,0.64131 0.0879,-0.2658 0.17592,-0.5251 0.262,-0.82786 l 1.82263,-6.4425 z m -277.24044,0.016 c -0.08442,0.27422 -0.164623,0.52641 -0.264583,0.87798 l -0.716753,2.50837 -1.460376,-0.84284 1.821595,-1.88567 -0.0016,5.2e-4 c 0.250746,-0.25656 0.4278,-0.45033 0.621668,-0.65836 z m 209.68694,0.30851 -4.88084,8.45323 1.44126,0.83199 2.05259,-3.55534 3.46904,2.00298 0.77514,-1.34307 -3.49022,-2.01538 1.2764,-2.21072 3.77703,2.18023 0.77618,-1.34411 z m -135.36693,0.85886 c -0.18841,0.004 -0.37479,0.0287 -0.55862,0.0739 -0.7364,0.18088 -1.33803,0.67809 -1.77715,1.43867 l -2.09083,3.62096 c -0.43912,0.76057 -0.56967,1.53112 -0.35812,2.2593 0.21124,0.72712 0.73135,1.32429 1.50947,1.77353 0.76424,0.44124 1.5347,0.58799 2.26859,0.40773 l 0.002,-5.2e-4 0.002,-5.1e-4 c 0.73849,-0.18833 1.33889,-0.68496 1.77405,-1.43867 l 1.28106,-2.21951 -3.0763,-1.77612 -0.77566,1.34462 1.63504,0.94362 -0.5054,0.87488 c -0.23908,0.4141 -0.50872,0.63773 -0.8201,0.72502 l -0.002,5.1e-4 -0.002,5.2e-4 c -0.30362,0.0902 -0.6275,0.0432 -1.01906,-0.18293 -0.39048,-0.22544 -0.60212,-0.48796 -0.68988,-0.80822 -0.0797,-0.31302 -0.0217,-0.65762 0.21704,-1.07125 l 2.09652,-3.63131 c 0.23817,-0.41251 0.50464,-0.62984 0.8077,-0.71107 0.31724,-0.0785 0.6515,-0.0239 1.04386,0.20258 0.39156,0.22606 0.59446,0.48261 0.66818,0.79065 l 5.2e-4,0.004 0.001,0.004 c 0.0825,0.30396 0.0272,0.64371 -0.21187,1.05781 l -0.12816,0.22221 1.44125,0.83199 0.12816,-0.22221 c 0.43445,-0.75249 0.56233,-1.51791 0.35244,-2.2443 l -5.2e-4,-0.002 c -0.2063,-0.73236 -0.71769,-1.3317 -1.48208,-1.77302 v -5.2e-4 c -0.58359,-0.33693 -1.16645,-0.50651 -1.73168,-0.49402 z m 70.0133,0.73535 -5.84667,3.11144 -1.05782,1.83245 3.64577,2.1053 -1.01389,1.75544 1.44126,0.83199 2.91713,-5.0524 -1.44125,-0.83199 -1.12758,1.95285 -2.20452,-1.27279 0.0827,-0.14314 6.25698,-3.3352 z M 28.230835,150.44973 c -1.966375,-0.049 -3.90318,0.94871 -4.951636,2.76469 L 0.73897298,192.25545 c -1.52502538,2.64142 -0.6126042,6.04608 2.02881672,7.57111 L 26.44283,213.4955 c 2.641421,1.52503 6.045112,0.61199 7.570081,-2.02934 l 2.934188,-5.08238 6.063712,3.50108 c 2.328531,1.34438 5.33532,0.53846 6.679696,-1.79007 l 5.200716,-9.00772 c 1.344376,-2.32852 0.538459,-5.33531 -1.790071,-6.67969 l -6.063196,-3.50056 9.515181,-16.48117 c 1.524969,-2.64133 0.613024,-6.04511 -2.0283,-7.57008 l -23.67504,-13.66842 c -0.825414,-0.47655 -1.725155,-0.71513 -2.618962,-0.73742 z m 68.115222,0 c -1.966375,-0.049 -3.903181,0.94871 -4.951636,2.76469 l -22.540226,39.04103 c -1.525025,2.64142 -0.612604,6.04608 2.028817,7.57111 l 23.675041,13.66894 c 2.64142,1.52503 6.045107,0.61199 7.570077,-2.02934 l 2.93419,-5.08186 6.0632,3.50056 c 2.32853,1.34438 5.33583,0.53846 6.68021,-1.79007 l 5.20072,-9.00772 c 1.34437,-2.32852 0.53845,-5.33531 -1.79008,-6.67969 l -6.06319,-3.50056 9.51518,-16.48117 c 1.52497,-2.64133 0.61302,-6.04511 -2.0283,-7.57008 L 98.965019,151.18715 c -0.825414,-0.47655 -1.725155,-0.71513 -2.618962,-0.73742 z m 68.114703,0 c -1.96637,-0.049 -3.90318,0.94871 -4.95163,2.76469 l -22.54023,39.04103 c -1.52502,2.64142 -0.6126,6.04608 2.02882,7.57111 l 23.67504,13.66894 c 2.64142,1.52503 6.04563,0.61199 7.5706,-2.02934 l 2.93367,-5.08186 6.06371,3.50056 c 2.32853,1.34438 5.33532,0.53846 6.67969,-1.79007 l 5.20072,-9.00772 c 1.34438,-2.32852 0.53898,-5.33531 -1.78955,-6.67969 l -6.06372,-3.50108 9.5157,-16.48065 c 1.52497,-2.64133 0.61303,-6.04511 -2.0283,-7.57008 l -23.67504,-13.66842 c -0.82541,-0.47655 -1.72567,-0.71513 -2.61948,-0.73742 z m 68.11522,0 c -1.96637,-0.049 -3.90318,0.94871 -4.95163,2.76469 l -22.54023,39.04103 c -1.52502,2.64142 -0.6126,6.04608 2.02882,7.57111 l 23.67504,13.66894 c 2.64142,1.52503 6.04511,0.61199 7.57008,-2.02934 l 2.93419,-5.08238 6.06371,3.50108 c 2.32853,1.34438 5.33533,0.53846 6.6797,-1.79007 l 5.20071,-9.00772 c 1.34438,-2.32852 0.53846,-5.33531 -1.79007,-6.67969 l -6.06319,-3.50056 9.51518,-16.48117 c 1.52497,-2.64133 0.61303,-6.04511 -2.0283,-7.57008 l -23.67504,-13.66842 c -0.82542,-0.47655 -1.72516,-0.71513 -2.61897,-0.73742 z m 68.11523,0 c -1.96638,-0.049 -3.90319,0.94871 -4.95164,2.76469 l -22.54023,39.04103 c -1.52502,2.64142 -0.6126,6.04608 2.02882,7.57111 l 23.67504,13.66894 c 2.64142,1.52503 6.04511,0.61199 7.57008,-2.02934 l 2.93419,-5.08186 6.0632,3.50056 c 2.32853,1.34438 5.33584,0.53846 6.68021,-1.79007 l 5.20072,-9.00772 c 1.34438,-2.32852 0.53845,-5.33531 -1.79008,-6.67969 l -6.06319,-3.50056 9.51518,-16.48169 c 1.52497,-2.64133 0.61303,-6.04459 -2.0283,-7.56956 l -23.67504,-13.66842 c -0.82541,-0.47655 -1.72516,-0.71513 -2.61896,-0.73742 z m -272.840714,2.34353 c 0.610475,-0.0408 1.242235,0.0964 1.822628,0.4315 l 23.675041,13.66893 c 1.547714,0.89357 2.060943,2.80758 1.16737,4.35529 l -9.515698,16.48116 -17.881079,-10.32391 c -0.727665,-0.42012 -1.521721,-0.63026 -2.310453,-0.64958 -1.73554,-0.0427 -3.446003,0.83824 -4.370276,2.43913 l -5.200716,9.00772 c -1.008298,1.74643 -0.806754,3.87437 0.339514,5.39657 0.382044,0.50758 0.869239,0.94742 1.451591,1.28364 l 17.881079,10.32392 -2.934188,5.08186 c -0.893573,1.54771 -2.80819,2.06191 -4.355806,1.1684 L 3.9444621,197.78896 C 2.3968458,196.89545 1.8835748,194.97973 2.7770915,193.43212 L 25.316801,154.39109 c 0.558447,-0.96725 1.516237,-1.52989 2.533695,-1.59783 z m 68.115223,0 c 0.610475,-0.0408 1.242235,0.0964 1.822627,0.4315 l 23.675044,13.66893 c 1.54771,0.89357 2.06042,2.80758 1.16685,4.35529 l -9.51518,16.48116 -17.88108,-10.32391 c -0.436599,-0.25208 -0.897454,-0.42828 -1.366325,-0.53331 -0.156309,-0.035 -0.313157,-0.0623 -0.470772,-0.0816 -0.15759,-0.0193 -0.31561,-0.0308 -0.473356,-0.0346 -1.73554,-0.0427 -3.44652,0.83824 -4.370793,2.43913 l -5.200199,9.00772 c -0.756223,1.30982 -0.831547,2.83472 -0.338481,4.15737 0.109501,0.29388 0.246906,0.57761 0.411345,0.84698 0.08225,0.13469 0.171128,0.26537 0.26665,0.39222 0.04347,0.0577 0.09283,0.11148 0.13901,0.16743 0.05528,0.067 0.108324,0.13577 0.167431,0.19999 0.325392,0.35354 0.708034,0.66415 1.144633,0.91622 l 17.881077,10.32392 -2.93367,5.08186 c -0.893572,1.54771 -2.808706,2.06191 -4.356322,1.1684 l -23.675041,-13.669 c -1.547617,-0.89351 -2.060886,-2.80923 -1.16737,-4.35684 l 22.540226,-39.04103 c 0.558448,-0.96725 1.516237,-1.52989 2.533696,-1.59783 z m 68.114701,0 c 0.61048,-0.0408 1.24276,0.0964 1.82315,0.4315 l 23.67504,13.66893 c 1.54771,0.89357 2.06042,2.80758 1.16685,4.35529 l -9.51518,16.48116 -17.88108,-10.32391 c -0.58213,-0.3361 -1.20725,-0.53782 -1.83761,-0.61495 -0.15745,-0.0193 -0.31575,-0.0307 -0.47336,-0.0346 -0.15757,-0.004 -0.31522,1.4e-4 -0.4718,0.0114 -1.56793,0.11229 -3.05822,0.9724 -3.89847,2.42776 l -5.20072,9.00772 c -1.00829,1.74643 -0.80624,3.87437 0.34003,5.39657 0.38202,0.50748 0.86881,0.94747 1.45108,1.28364 l 17.88107,10.32392 -2.93418,5.08186 c -0.89357,1.54771 -2.8082,2.06191 -4.35581,1.1684 l -23.67504,-13.66893 c -1.54761,-0.89351 -2.06089,-2.80923 -1.16737,-4.35684 l 22.54023,-39.04103 c 0.55844,-0.96725 1.51572,-1.52989 2.53317,-1.59783 z m 68.11523,0 c 0.61047,-0.0408 1.24223,0.0964 1.82262,0.4315 l 23.67556,13.66893 c 1.54771,0.89357 2.06043,2.80758 1.16686,4.35529 l -9.5157,16.48116 -17.88108,-10.32391 c -0.72766,-0.42012 -1.52172,-0.63026 -2.31046,-0.64958 -1.73553,-0.0427 -3.446,0.83824 -4.37027,2.43913 l -5.20072,9.00772 c -1.00829,1.74643 -0.80675,3.87437 0.33952,5.39657 0.38204,0.50758 0.86924,0.94742 1.45159,1.28364 l 17.88108,10.32392 -2.93419,5.08186 c -0.89357,1.54771 -2.8082,2.06191 -4.35581,1.1684 l -23.67504,-13.66893 c -1.54761,-0.89351 -2.06089,-2.80923 -1.16737,-4.35684 l 22.53971,-39.04103 c 0.55844,-0.96725 1.51624,-1.52989 2.5337,-1.59783 z m 68.11522,0 c 0.61047,-0.0408 1.24223,0.0964 1.82263,0.4315 l 23.67504,13.66893 c 1.54771,0.89357 2.06042,2.80758 1.16685,4.35529 l -9.51518,16.48116 -17.88108,-10.32391 c -0.72766,-0.42012 -1.52172,-0.63026 -2.31045,-0.64958 -1.73554,-0.0427 -3.44652,0.83824 -4.3708,2.43913 l -5.2002,9.00772 c -0.75621,1.30982 -0.83154,2.83472 -0.33848,4.15737 0.1095,0.29388 0.24691,0.57761 0.41135,0.84698 0.0822,0.13469 0.17113,0.26537 0.26665,0.39222 0.0435,0.0577 0.0928,0.11148 0.13901,0.16743 0.0553,0.067 0.10832,0.13577 0.16743,0.19999 0.32539,0.35354 0.70803,0.66415 1.14463,0.91622 l 17.88108,10.32392 -2.93367,5.08186 c -0.89357,1.54771 -2.80871,2.06191 -4.35632,1.1684 l -23.67504,-13.66893 c -1.54761,-0.89351 -2.06089,-2.80923 -1.16737,-4.35684 l 22.54022,-39.04103 c 0.55845,-0.96725 1.51624,-1.52989 2.5337,-1.59783 z M 24.490495,179.09915 h 5.17e-4 c 0.005,-3.3e-4 0.01003,8.1e-4 0.01499,5.1e-4 0.480662,-0.029 0.977764,0.0801 1.436088,0.34468 l 19.919197,11.50008 6.063196,3.50056 c 1.234814,0.71292 1.641547,2.23112 0.928626,3.46594 l -5.2002,9.0072 c -0.71292,1.23482 -2.231124,1.64154 -3.465938,0.92862 l -6.063196,-3.50056 -19.919197,-11.50007 c -0.463056,-0.26734 -0.809971,-0.64834 -1.024744,-1.08469 -0.357656,-0.72712 -0.348818,-1.60918 0.09664,-2.38073 l 5.200199,-9.00772 c 0.267266,-0.46292 0.647474,-0.80996 1.083655,-1.02474 h 5.17e-4 c 0.290743,-0.14311 0.606323,-0.22758 0.929659,-0.24908 z m 68.115222,0 h 5.17e-4 c 0.005,-3.3e-4 0.01003,8.1e-4 0.01499,5.1e-4 0.480662,-0.029 0.977764,0.0801 1.436088,0.34468 l 19.919198,11.50008 6.06319,3.50056 c 1.23481,0.71292 1.64155,2.23112 0.92863,3.46594 l -5.20072,9.0072 c -0.71292,1.23482 -2.23061,1.64154 -3.46542,0.92862 l -6.0632,-3.50056 -19.91919,-11.50007 c -0.308695,-0.17822 -0.565625,-0.40679 -0.766362,-0.66869 -0.100316,-0.13092 -0.186791,-0.27055 -0.258382,-0.416 -0.357656,-0.72712 -0.349334,-1.60918 0.09612,-2.38073 l 5.200716,-9.00772 c 0.445482,-0.7716 1.205235,-1.22005 2.013831,-1.27382 z m 68.115223,0 h 5.2e-4 c 0.005,-3.4e-4 0.0104,8.2e-4 0.0155,5.1e-4 0.4805,-0.0289 0.97741,0.0802 1.43557,0.34468 l 25.98239,15.00064 c 1.23482,0.71292 1.64155,2.23112 0.92863,3.46594 l -5.20072,9.0072 c -0.71292,1.23482 -2.2306,1.64154 -3.46542,0.92862 l -6.06371,-3.50056 -19.91868,-11.50007 c -0.3087,-0.17822 -0.56563,-0.40679 -0.76636,-0.66869 -0.10032,-0.13092 -0.18679,-0.27055 -0.25839,-0.416 -0.0196,-0.0397 -0.0291,-0.0829 -0.0465,-0.1235 -0.30028,-0.70274 -0.27857,-1.52771 0.14262,-2.25723 l 5.20072,-9.00772 c 0.44548,-0.7716 1.20523,-1.22005 2.01383,-1.27382 z m 68.1147,0 h 5.2e-4 c 0.005,-3.4e-4 0.0104,8.2e-4 0.0155,5.1e-4 0.48051,-0.0289 0.97741,0.0802 1.43558,0.34468 l 19.91919,11.50008 6.0632,3.50056 c 1.23482,0.71292 1.64154,2.23112 0.92862,3.46594 l -5.20019,9.0072 c -0.71292,1.23482 -2.23061,1.64154 -3.46543,0.92862 l -6.06371,-3.50056 -19.9192,-11.50007 c -0.22899,-0.13221 -0.41887,-0.2994 -0.58911,-0.48007 -0.17382,-0.18456 -0.32712,-0.38417 -0.43563,-0.60462 -0.35766,-0.72712 -0.34882,-1.60918 0.0966,-2.38073 l 5.2002,-9.00772 c 0.44548,-0.7716 1.20524,-1.22005 2.01383,-1.27382 z m 68.11523,0 h 5.1e-4 c 0.005,-3.3e-4 0.01,8.1e-4 0.015,5.1e-4 0.28811,-0.0174 0.58162,0.0215 0.86971,0.10749 0.0305,0.009 0.0616,0.0114 0.092,0.0217 h 5.1e-4 c 0.16107,0.0547 0.31953,0.12638 0.47388,0.21549 l 19.9192,11.50008 6.06319,3.50056 c 1.23482,0.71292 1.64155,2.23112 0.92863,3.46594 l -5.20072,9.0072 c -0.71292,1.23482 -2.2306,1.64154 -3.46542,0.92862 l -6.0632,-3.50056 -19.91919,-11.50007 c -0.3087,-0.17822 -0.56563,-0.40679 -0.76637,-0.66869 -0.10031,-0.13092 -0.18679,-0.27055 -0.25838,-0.416 -0.35765,-0.72712 -0.34933,-1.60918 0.0961,-2.38073 l 5.20072,-9.00772 c 0.44548,-0.7716 1.20523,-1.22005 2.01383,-1.27382 z m -200.755708,4.87773 -4.880322,8.45375 1.407666,0.81287 2.31407,-4.00751 c 0.396967,-0.68756 0.758742,-1.33985 1.094507,-1.96732 l -0.639237,2.80448 1.191141,0.68782 2.323373,-2.12959 c -0.193752,0.30563 -0.389044,0.6119 -0.577743,0.91622 l -5.16e-4,0.001 -0.001,0.002 c -0.273945,0.45745 -0.515161,0.86585 -0.722953,1.22576 l -2.313554,4.00751 1.408183,0.81287 4.880313,-8.45375 -1.857242,-1.07228 -2.587956,2.39727 0.821139,-3.41737 z m 204.543588,0.11473 -0.77566,1.3441 3.41167,1.96991 -6.83782,3.83749 -0.73329,1.2702 5.19658,3.00034 0.77567,-1.34411 -3.57601,-2.06499 6.83627,-3.83801 0.73381,-1.2702 z m -67.94934,0.0956 -0.77618,1.3441 1.64693,0.95033 -3.329,5.76554 -1.64641,-0.95085 -0.77618,1.34411 4.75475,2.74557 0.77618,-1.34462 -1.64538,-0.94982 3.32848,-5.76502 1.64538,0.94981 0.77618,-1.3441 z m -67.31837,0.82062 c -0.18841,0.004 -0.3748,0.0287 -0.55863,0.0739 -0.7364,0.18088 -1.33752,0.67809 -1.77663,1.43867 l -2.09083,3.62097 c -0.43912,0.76058 -0.56967,1.53111 -0.35812,2.25929 0.21124,0.72712 0.73135,1.32428 1.50947,1.77353 0.76424,0.44124 1.53471,0.588 2.2686,0.40773 l 0.002,-5.2e-4 0.002,-5.1e-4 c 0.73849,-0.18833 1.33889,-0.68496 1.77405,-1.43867 l 0.12816,-0.22221 -1.44126,-0.83199 -0.12815,0.22221 c -0.23908,0.4141 -0.50873,0.63721 -0.82011,0.7245 -0.29897,0.084 -0.62314,0.0335 -1.01596,-0.19327 -0.39128,-0.22591 -0.60499,-0.48661 -0.69608,-0.79944 -0.0788,-0.31236 -0.0212,-0.65612 0.21704,-1.06866 l 2.09031,-3.62097 c 0.23908,-0.4141 0.50578,-0.63213 0.81029,-0.71262 0.32205,-0.0851 0.65541,-0.0322 1.04697,0.19379 0.39155,0.22607 0.59445,0.48261 0.66817,0.79065 l 0.001,0.004 0.001,0.004 c 0.0826,0.30396 0.0267,0.64371 -0.21239,1.05781 l -0.12816,0.22221 1.44126,0.83199 0.12815,-0.2222 c 0.43444,-0.75249 0.56233,-1.51792 0.35244,-2.24431 l -5.2e-4,-0.002 c -0.20639,-0.73234 -0.71769,-1.3317 -1.48208,-1.77302 l -5.2e-4,-5.1e-4 c -0.58359,-0.33694 -1.16644,-0.50652 -1.73167,-0.49403 z m -135.48424,0.0698 -7.096208,7.17424 1.481047,0.85525 1.758032,-1.82263 2.091862,1.20716 -0.698665,2.43499 1.468644,0.84801 2.677356,-9.72602 z m 4.412651,2.54765 -2.688725,9.7193 1.704805,0.98392 7.083806,-7.18147 -1.491382,-0.86093 -4.606954,4.82296 c -0.219376,0.22618 -0.411404,0.43076 -0.606165,0.63872 0.08763,-0.26505 0.176201,-0.52351 0.262,-0.82527 l 1.821594,-6.44354 z m -4.781104,0.0171 c -0.08434,0.27399 -0.164224,0.52528 -0.264066,0.87644 l -0.716753,2.50889 -1.460375,-0.84336 1.821077,-1.88413 0.001,-0.001 c 0.249877,-0.25568 0.425727,-0.44935 0.619083,-0.65681 z m 141.517973,0.27544 -3.48557,6.03736 c -0.4334,0.75066 -0.57928,1.50431 -0.40514,2.22157 l -5.2e-4,0.001 5.2e-4,0.002 c 0.18096,0.71762 0.6978,1.31263 1.48983,1.76991 0.79768,0.46054 1.57227,0.61185 2.27789,0.40566 l 0.002,-5.1e-4 c 0.70544,-0.20081 1.28536,-0.70602 1.72238,-1.46296 l 3.48557,-6.03736 -1.44125,-0.83199 -3.48558,6.03736 c -0.23201,0.40186 -0.49563,0.63285 -0.79582,0.73742 -0.28877,0.1006 -0.60361,0.061 -1.002,-0.16898 -0.40598,-0.23439 -0.59955,-0.49005 -0.65681,-0.78858 -0.0523,-0.30734 0.0183,-0.65109 0.25011,-1.05265 l 3.48558,-6.03736 z m 136.39633,0.0961 -0.77566,1.3441 1.64537,0.95033 -3.32847,5.76502 -1.64538,-0.94981 -0.77618,1.3441 4.75475,2.74506 0.77618,-1.34411 -1.64693,-0.95084 3.32848,-5.76503 1.64693,0.95085 0.77566,-1.3441 z m -203.61858,0.79116 c -0.18722,0.007 -0.3726,0.0343 -0.55552,0.0827 -0.73751,0.19493 -1.34686,0.72848 -1.81746,1.54357 l -1.963706,3.40134 c -0.470591,0.81509 -0.628855,1.61098 -0.428914,2.34715 0.198364,0.73037 0.706737,1.32823 1.47174,1.76991 0.765,0.44167 1.53743,0.58303 2.26912,0.38964 0.73752,-0.19493 1.34738,-0.72951 1.81797,-1.5446 l 1.97043,-3.41272 c 0.46659,-0.80815 0.6209,-1.5993 0.42116,-2.33474 -0.19836,-0.73037 -0.70674,-1.32823 -1.47175,-1.76991 -0.57375,-0.33126 -1.1514,-0.49348 -1.71307,-0.47233 z m 136.29969,0.0295 c -0.18852,0.004 -0.37531,0.0282 -0.55914,0.0734 -0.7364,0.18088 -1.33648,0.67861 -1.7756,1.43919 l -2.09083,3.62097 c -0.43912,0.76058 -0.5707,1.53059 -0.35915,2.25877 0.21125,0.72712 0.73238,1.3248 1.5105,1.77405 0.76425,0.44124 1.53471,0.58852 2.2686,0.40825 l 0.001,-0.001 0.002,-5.1e-4 c 0.73848,-0.18834 1.33838,-0.68548 1.77353,-1.43919 l 0.12868,-0.22221 -1.44126,-0.83199 -0.12816,0.22221 c -0.23908,0.4141 -0.50873,0.63773 -0.8201,0.72502 -0.29897,0.084 -0.62211,0.034 -1.01493,-0.19275 -0.39128,-0.2259 -0.60499,-0.48661 -0.69608,-0.79944 -0.0787,-0.31236 -0.0212,-0.65614 0.21704,-1.06867 l 2.09032,-3.62096 c 0.23909,-0.4141 0.50576,-0.63214 0.81028,-0.71262 0.32205,-0.0851 0.65593,-0.0323 1.04748,0.19378 0.39156,0.22606 0.59292,0.48158 0.66663,0.78962 l 0.001,0.004 0.001,0.004 c 0.0825,0.30397 0.0267,0.64371 -0.21239,1.05781 l -0.12816,0.22221 1.44125,0.83199 0.12816,-0.22221 c 0.43459,-0.75273 0.56261,-1.5177 0.35244,-2.2443 -0.20601,-0.73322 -0.71656,-1.33238 -1.48157,-1.77405 v -0.001 c -0.58359,-0.33694 -1.16715,-0.50684 -1.73271,-0.49454 z M 104.0846,190.392 c 0.23596,-0.0152 0.48653,0.052 0.77412,0.21807 v -0.001 c 0.39155,0.22607 0.58818,0.47908 0.65525,0.78031 l 0.001,0.004 10e-4,0.004 c 0.0764,0.29944 0.0171,0.63943 -0.22273,1.05472 l -2.09031,3.62096 c -0.23977,0.41529 -0.50789,0.64184 -0.81235,0.73226 -0.28964,0.0863 -0.60815,0.0392 -1.00097,-0.18759 -0.38317,-0.22122 -0.58314,-0.47304 -0.66094,-0.77359 -0.0735,-0.3086 -0.0131,-0.65436 0.22634,-1.06919 l 2.09031,-3.62097 c 0.23977,-0.4153 0.505,-0.63629 0.80253,-0.71985 l 0.002,-5.2e-4 h 0.003 c 0.0762,-0.0226 0.15337,-0.0368 0.23202,-0.0419 z m 5.05809,1.0604 -2.68872,9.71878 1.7048,0.98444 7.08432,-7.18147 -1.49241,-0.86197 -4.60747,4.82348 c -0.21992,0.22675 -0.41098,0.43288 -0.60617,0.64131 0.0879,-0.26579 0.17592,-0.52563 0.262,-0.82838 l 1.82263,-6.4425 z m 204.8738,0.30489 -4.88084,8.45323 1.44126,0.83251 1.90014,-3.29128 1.37821,0.79582 c 0.7935,0.45812 1.59069,0.60976 2.34818,0.42323 0.76744,-0.18923 1.38736,-0.6903 1.82779,-1.45314 0.43952,-0.76128 0.56211,-1.54606 0.339,-2.29753 -0.21239,-0.75678 -0.74005,-1.37649 -1.53427,-1.83503 z m -136.21907,0.007 -4.88033,8.45323 1.42989,0.82579 1.96319,-3.40135 0.96997,0.56018 -0.38293,4.31343 1.58699,0.91622 0.39119,-4.65346 c 0.49752,0.0519 0.99337,0.0514 1.4521,-0.15451 0.5553,-0.24928 1.00607,-0.67754 1.34049,-1.25678 0.28435,-0.4925 0.43292,-0.99825 0.43253,-1.50636 -4e-4,-0.50519 -0.14217,-0.98583 -0.41703,-1.42214 -0.2718,-0.44542 -0.66889,-0.81706 -1.17719,-1.11053 z m -136.09764,0.0765 -0.77618,1.3441 1.645895,0.94981 -3.328996,5.76503 -1.645378,-0.94982 -0.775663,1.34411 4.754749,2.74505 0.775663,-1.3441 -1.645378,-0.94982 3.328479,-5.76502 1.645895,0.94981 0.775663,-1.3441 z m 205.07275,0.79116 c -0.18711,0.007 -0.37259,0.0349 -0.55552,0.0832 -0.73751,0.19493 -1.3479,0.72797 -1.81849,1.54306 l -1.96371,3.40083 c -0.47059,0.81509 -0.6273,1.61149 -0.42736,2.34766 0.19836,0.73037 0.70519,1.32772 1.47019,1.7694 0.76501,0.44167 1.5369,0.58303 2.2686,0.38964 0.73752,-0.19493 1.34894,-0.729 1.81953,-1.54409 l 1.97042,-3.4122 c 0.46659,-0.80815 0.61987,-1.59982 0.42013,-2.33526 -0.19837,-0.73037 -0.70675,-1.32875 -1.47175,-1.77043 -0.57375,-0.33125 -1.15069,-0.49314 -1.71204,-0.47181 z m -68.31469,1.29036 1.27899,0.73846 c 0.36583,0.21122 0.56606,0.46672 0.65113,0.79892 0.0847,0.3306 0.0302,0.66736 -0.19431,1.05626 -0.21955,0.38026 -0.48403,0.59819 -0.81959,0.69764 -0.32965,0.0918 -0.64969,0.045 -1.01492,-0.16589 l -1.27951,-0.73845 z m 136.22993,0 1.37873,0.79582 c 0.38903,0.22461 0.60055,0.49189 0.68833,0.83406 l 5.1e-4,0.002 5.2e-4,0.002 c 0.0937,0.34514 0.0397,0.70104 -0.1974,1.11156 -0.23238,0.40251 -0.51382,0.62799 -0.86714,0.72657 -0.34021,0.0951 -0.67757,0.0453 -1.0666,-0.17931 l -1.37821,-0.79582 z m -67.74574,0.29663 c 0.23596,-0.0152 0.48653,0.0515 0.77412,0.21755 l -5.2e-4,-0.001 c 0.39155,0.22607 0.58871,0.47961 0.65577,0.78083 l 0.001,0.004 0.001,0.004 c 0.0764,0.29944 0.0181,0.63995 -0.22169,1.05524 l -2.09031,3.62096 c -0.23977,0.41529 -0.50894,0.64131 -0.81339,0.73174 -0.28964,0.0863 -0.60815,0.0392 -1.00097,-0.18758 -0.38363,-0.2215 -0.58335,-0.47204 -0.66094,-0.77308 -0.0735,-0.30861 -0.0131,-0.65436 0.22634,-1.06919 l 2.09031,-3.62097 c 0.23977,-0.4153 0.50605,-0.63577 0.80357,-0.71933 l 0.002,-5.2e-4 0.002,-5.2e-4 c 0.0762,-0.0226 0.15337,-0.0368 0.23202,-0.0419 z M 28.230835,225.67356 c -1.966375,-0.049 -3.903181,0.94923 -4.951636,2.76521 L 0.73897298,267.47928 c -1.52502538,2.64142 -0.6126042,6.0466 2.02881672,7.57163 L 26.44283,288.71933 c 2.641421,1.52503 6.045112,0.61199 7.570081,-2.02934 l 2.934188,-5.08237 6.063712,3.50108 c 2.32853,1.34438 5.33532,0.53845 6.679696,-1.79008 l 5.200716,-9.0072 c 1.344376,-2.32852 0.538459,-5.33583 -1.790071,-6.68021 l -6.063196,-3.50056 9.515181,-16.48117 c 1.524969,-2.64133 0.613024,-6.04459 -2.0283,-7.56956 l -23.67504,-13.66893 c -0.825414,-0.47656 -1.725155,-0.71514 -2.618962,-0.73743 z m 68.115222,0 c -1.966375,-0.049 -3.903181,0.94923 -4.951636,2.76521 l -22.540226,39.04051 c -1.525025,2.64142 -0.612604,6.0466 2.028817,7.57163 l 23.675041,13.66842 c 2.64142,1.52503 6.045107,0.61199 7.570077,-2.02934 l 2.93419,-5.08186 6.0632,3.50057 c 2.32853,1.34438 5.33584,0.53845 6.68021,-1.79008 l 5.20072,-9.0072 c 1.34437,-2.32852 0.53845,-5.33583 -1.79008,-6.68021 l -6.06319,-3.50056 9.51518,-16.48117 c 1.52497,-2.64133 0.61303,-6.04459 -2.0283,-7.56956 L 98.965019,226.41099 c -0.825414,-0.47656 -1.725155,-0.71514 -2.618962,-0.73743 z m 68.114703,0 c -1.96637,-0.049 -3.90318,0.94923 -4.95163,2.76521 l -22.54023,39.04051 c -1.52502,2.64142 -0.6126,6.0466 2.02882,7.57163 l 23.67504,13.66842 c 2.64142,1.52503 6.04563,0.61199 7.5706,-2.02934 l 2.93367,-5.08186 6.06371,3.50057 c 2.32853,1.34438 5.33532,0.53845 6.67969,-1.79008 l 5.20072,-9.0072 c 1.34438,-2.32852 0.53898,-5.33583 -1.78955,-6.68021 l -6.06372,-3.50108 9.5157,-16.48065 c 1.52497,-2.64133 0.61303,-6.04459 -2.0283,-7.56956 l -23.67504,-13.66893 c -0.82541,-0.47656 -1.72567,-0.71514 -2.61948,-0.73743 z m 68.11522,0 c -1.96637,-0.049 -3.90318,0.94923 -4.95163,2.76521 l -22.54023,39.04051 c -1.52502,2.64142 -0.6126,6.0466 2.02882,7.57163 l 23.67504,13.66842 c 2.64142,1.52503 6.04511,0.61199 7.57008,-2.02934 l 2.93419,-5.08237 6.06371,3.50108 c 2.32853,1.34438 5.33533,0.53845 6.6797,-1.79008 l 5.20071,-9.0072 c 1.34438,-2.32852 0.53846,-5.33583 -1.79007,-6.68021 l -6.06319,-3.50056 9.51518,-16.48117 c 1.52497,-2.64133 0.61303,-6.04459 -2.0283,-7.56956 l -23.67504,-13.66893 c -0.82542,-0.47656 -1.72516,-0.71514 -2.61897,-0.73743 z m 68.11523,0 c -1.96638,-0.049 -3.90319,0.94923 -4.95164,2.76521 l -22.54023,39.04051 c -1.52502,2.64142 -0.6126,6.0466 2.02882,7.57163 l 23.67504,13.66842 c 2.64142,1.52503 6.04511,0.61199 7.57008,-2.02934 l 2.93419,-5.08186 6.0632,3.50057 c 2.32853,1.34438 5.33584,0.53845 6.68021,-1.79008 l 5.20072,-9.0072 c 1.34438,-2.32852 0.53845,-5.33583 -1.79008,-6.68021 l -6.06319,-3.50056 9.51518,-16.48117 c 1.52497,-2.64133 0.61303,-6.04459 -2.0283,-7.56956 l -23.67504,-13.66893 c -0.82541,-0.47656 -1.72516,-0.71514 -2.61896,-0.73743 z m -272.840714,2.34353 c 0.610475,-0.0408 1.242236,0.0964 1.822628,0.4315 l 23.675041,13.66893 c 1.547713,0.89357 2.060943,2.80758 1.16737,4.35529 l -9.515698,16.48117 -17.881079,-10.32341 c -0.436599,-0.25207 -0.896937,-0.42879 -1.365808,-0.53381 -2.032029,-0.45528 -4.222598,0.43089 -5.314921,2.32285 l -5.200716,9.00772 c -1.092323,1.89196 -0.764372,4.23234 0.645955,5.76451 0.325392,0.35354 0.708551,0.66363 1.14515,0.9157 l 17.881079,10.32392 -2.934188,5.08186 c -0.893573,1.54771 -2.808189,2.06192 -4.355806,1.16841 L 3.9444621,273.01279 C 2.3968458,272.11928 1.8835748,270.20356 2.7770915,268.65595 L 25.316801,229.61493 c 0.558447,-0.96726 1.516237,-1.5299 2.533695,-1.59784 z m 68.115223,0 c 0.610475,-0.0408 1.242235,0.0964 1.822627,0.4315 l 23.675044,13.66893 c 1.54771,0.89357 2.06042,2.80758 1.16685,4.35529 l -9.51518,16.48117 -17.88108,-10.32341 c -0.436599,-0.25207 -0.897454,-0.42879 -1.366325,-0.53381 -2.032028,-0.45528 -4.222598,0.43089 -5.314921,2.32285 l -5.200199,9.00772 c -0.756223,1.30982 -0.831547,2.83472 -0.338481,4.15737 0.164251,0.44082 0.391511,0.85921 0.677995,1.23972 0.09552,0.12685 0.197955,0.24956 0.306441,0.36742 0.325392,0.35354 0.708034,0.66363 1.144633,0.9157 l 17.881077,10.32392 -2.93367,5.08186 c -0.89357,1.54771 -2.808706,2.06192 -4.356322,1.16841 L 72.059167,273.01279 c -1.547617,-0.89351 -2.060886,-2.80923 -1.16737,-4.35684 l 22.540226,-39.04102 c 0.558448,-0.96726 1.516237,-1.5299 2.533696,-1.59784 z m 68.114701,0 c 0.61048,-0.0408 1.24276,0.0964 1.82315,0.4315 l 23.67504,13.66893 c 1.54771,0.89357 2.06042,2.80758 1.16685,4.35529 l -9.51518,16.48117 -17.88108,-10.32341 c -0.4366,-0.25207 -0.89745,-0.42879 -1.36632,-0.53381 -2.03203,-0.45528 -4.2226,0.43089 -5.31492,2.32285 l -5.20072,9.00772 c -0.92427,1.60089 -0.83138,3.52268 0.0734,5.00435 0.4111,0.6734 0.99006,1.25575 1.71773,1.67586 l 17.88107,10.32392 -2.93418,5.08186 c -0.89357,1.54771 -2.8082,2.06192 -4.35581,1.16841 l -23.67504,-13.66894 c -1.54761,-0.89351 -2.06089,-2.80923 -1.16737,-4.35684 l 22.54023,-39.04102 c 0.55844,-0.96726 1.51572,-1.5299 2.53317,-1.59784 z m 68.11523,0 c 0.61047,-0.0408 1.24223,0.0964 1.82262,0.4315 l 23.67556,13.66893 c 1.54771,0.89357 2.06043,2.80758 1.16686,4.35529 l -9.5157,16.48117 -17.88108,-10.32341 c -0.4366,-0.25207 -0.89694,-0.42879 -1.36581,-0.53381 -2.03203,-0.45528 -4.2226,0.43089 -5.31492,2.32285 l -5.20072,9.00772 c -1.09231,1.89196 -0.76437,4.23234 0.64596,5.76451 0.32539,0.35354 0.70855,0.66363 1.14515,0.9157 l 17.88108,10.32392 -2.93419,5.08186 c -0.89357,1.54771 -2.8082,2.06192 -4.35581,1.16841 l -23.67504,-13.66894 c -1.54761,-0.89351 -2.06089,-2.80923 -1.16737,-4.35684 l 22.53971,-39.04102 c 0.55844,-0.96726 1.51624,-1.5299 2.5337,-1.59784 z m 68.11522,0 c 0.61047,-0.0408 1.24223,0.0964 1.82263,0.4315 l 23.67504,13.66893 c 1.54771,0.89357 2.06042,2.80758 1.16685,4.35529 l -9.51518,16.48117 -17.88108,-10.32341 c -0.4366,-0.25207 -0.89694,-0.42879 -1.36581,-0.53381 -2.03203,-0.45528 -4.22311,0.43089 -5.31544,2.32285 l -5.2002,9.00772 c -0.75621,1.30982 -0.83154,2.83472 -0.33848,4.15737 0.16425,0.44082 0.39151,0.85921 0.678,1.23972 0.0955,0.12685 0.19795,0.24956 0.30644,0.36742 0.32539,0.35354 0.70803,0.66363 1.14463,0.9157 l 17.88108,10.32392 -2.93367,5.08186 c -0.89357,1.54771 -2.80871,2.06192 -4.35632,1.16841 l -23.67504,-13.66894 c -1.54761,-0.89351 -2.06089,-2.80923 -1.16737,-4.35684 l 22.54022,-39.04102 c 0.55845,-0.96726 1.51624,-1.5299 2.5337,-1.59784 z M 24.490495,254.32298 h 5.17e-4 c 0.161657,-0.0106 0.325437,-0.005 0.488859,0.016 h 5.16e-4 c 0.327076,0.0428 0.652995,0.15095 0.961699,0.32918 l 25.982393,15.00115 c 1.234815,0.71292 1.641546,2.2306 0.928626,3.46542 l -5.2002,9.00772 c -0.712921,1.23482 -2.231123,1.64154 -3.465938,0.92862 l -6.063196,-3.50056 V 279.57 L 18.204574,268.06994 c -1.234815,-0.71292 -1.64103,-2.2306 -0.928109,-3.46542 l 5.200199,-9.00772 c 0.445482,-0.7716 1.205235,-1.22005 2.013831,-1.27382 z m 68.115222,0 h 5.17e-4 c 0.485272,-0.0322 0.988018,0.0779 1.451074,0.3452 l 25.982392,15.00115 c 1.23482,0.71292 1.64155,2.2306 0.92863,3.46542 l -5.20072,9.00772 c -0.71292,1.23482 -2.23061,1.64154 -3.46542,0.92862 l -6.0632,-3.50056 v -5.1e-4 L 86.319796,268.06994 c -1.234816,-0.71292 -1.641546,-2.2306 -0.928626,-3.46542 l 5.200716,-9.00772 c 0.445482,-0.7716 1.205235,-1.22005 2.013831,-1.27382 z m 68.115223,0 h 5.2e-4 c 0.16165,-0.0106 0.32492,-0.005 0.48834,0.016 h 5.1e-4 c 0.32708,0.0428 0.65352,0.15095 0.96222,0.32918 l 19.91868,11.50007 6.06371,3.50108 c 1.23482,0.71292 1.64155,2.2306 0.92863,3.46542 l -5.20072,9.00772 c -0.71292,1.23482 -2.2306,1.64154 -3.46542,0.92862 L 174.3537,279.57 154.43502,268.06992 c -1.23482,-0.71292 -1.64155,-2.2306 -0.92863,-3.46542 l 5.20072,-9.00772 c 0.44548,-0.7716 1.20523,-1.22005 2.01383,-1.27382 z m 68.1147,0 h 5.2e-4 c 0.16166,-0.0106 0.32544,-0.005 0.48886,0.016 h 5.2e-4 c 0.32707,0.0428 0.65299,0.15095 0.9617,0.32918 l 25.98239,15.00115 c 1.23482,0.71292 1.64154,2.2306 0.92862,3.46542 l -5.20019,9.00772 c -0.71292,1.23482 -2.23061,1.64154 -3.46543,0.92862 l -6.06371,-3.50107 -19.9192,-11.50008 c -1.23482,-0.71292 -1.64103,-2.2306 -0.92811,-3.46542 l 5.2002,-9.00772 c 0.44548,-0.7716 1.20524,-1.22005 2.01383,-1.27382 z m 68.11523,0 h 5.1e-4 c 0.16176,-0.0107 0.32532,-0.005 0.48886,0.016 0.1636,0.0214 0.32672,0.059 0.48783,0.11369 h 5.1e-4 c 0.16107,0.0547 0.31953,0.12637 0.47388,0.21549 l 25.98239,15.00115 c 1.23482,0.71292 1.64155,2.2306 0.92863,3.46542 l -5.20072,9.00772 c -0.71292,1.23482 -2.2306,1.64154 -3.46542,0.92862 l -6.0632,-3.50056 V 279.57 l -19.91919,-11.50008 c -1.23482,-0.71292 -1.64155,-2.2306 -0.92863,-3.46542 l 5.20072,-9.00772 c 0.44548,-0.7716 1.20523,-1.22005 2.01383,-1.27382 z m 0.49609,3.0918 -4.88032,8.45375 2.31148,1.3348 c 0.55076,0.31798 1.09749,0.49368 1.63608,0.51521 0.54173,0.0257 1.05108,-0.0941 1.50585,-0.3576 0.46744,-0.26708 0.85378,-0.66999 1.15497,-1.19166 l 1.8433,-3.19257 c 0.3009,-0.52117 0.4548,-1.05285 0.44803,-1.58491 l -5.1e-4,-0.002 c 4.3e-4,-0.52458 -0.14888,-1.02502 -0.44132,-1.48053 l -10e-4,-5.2e-4 c -0.28794,-0.45567 -0.71377,-0.84112 -1.26453,-1.1591 z m -68.10334,0.007 -4.88084,8.45374 1.44126,0.83199 2.12855,-3.68711 2.13682,1.23403 -2.12803,3.6866 1.44074,0.83199 4.88084,-8.45323 -1.44126,-0.83199 -1.97662,3.42356 -2.13734,-1.23351 1.97662,-3.42408 z m -133.33656,1.6707 -0.77618,1.3441 2.209167,1.27537 -4.104659,7.10965 1.441256,0.83199 4.104659,-7.10965 2.209167,1.27538 0.77566,-1.34411 z m 68.52347,0.23564 -4.88084,8.45375 1.44125,0.83199 1.90014,-3.29127 1.37873,0.79581 c 0.79349,0.45812 1.59172,0.61081 2.34921,0.42427 0.76745,-0.18922 1.38737,-0.6903 1.8278,-1.45314 0.43987,-0.76187 0.56129,-1.54811 0.33745,-2.30012 -0.21291,-0.75549 -0.74105,-1.375 -1.53428,-1.83297 z m -136.218563,0.007 -4.880839,8.45375 1.429887,0.82527 1.963704,-3.40134 0.969967,0.56017 -0.383439,4.31343 1.586983,0.91674 0.392741,-4.6545 c 0.496869,0.0515 0.9924,0.0522 1.450557,-0.15348 0.555296,-0.24928 1.007096,-0.67752 1.341521,-1.25677 0.284345,-0.4925 0.432409,-0.99826 0.432014,-1.50636 -3.93e-4,-0.50519 -0.142163,-0.98635 -0.417028,-1.42266 -0.271796,-0.44543 -0.668886,-0.81654 -1.177189,-1.11001 z m 269.813503,0.23409 0.87023,0.5023 c 0.44427,0.2565 0.68619,0.55224 0.78238,0.9064 l 5.2e-4,0.002 5.2e-4,0.002 c 0.10289,0.35981 0.0475,0.73106 -0.20206,1.16323 l -1.84278,3.19257 c -0.25411,0.44014 -0.55171,0.67739 -0.91364,0.76791 l -0.002,5.2e-4 -0.002,5.2e-4 c -0.3548,0.0938 -0.73137,0.0322 -1.17564,-0.22428 l -0.87075,-0.50229 z m -62.57447,1.43661 -0.77618,1.3441 2.20916,1.27538 -4.10465,7.10964 1.44125,0.83199 4.10414,-7.10964 2.2102,1.2764 0.77618,-1.3441 z m -206.579125,0.48782 1.279508,0.73846 c 0.365832,0.21121 0.565533,0.46672 0.650607,0.79892 0.08466,0.33059 0.03178,0.66736 -0.192753,1.05626 -0.219545,0.38026 -0.485586,0.59766 -0.821139,0.69712 -0.329656,0.0918 -0.649696,0.045 -1.014925,-0.16588 l -1.278992,-0.73846 z m 136.230445,0 1.37821,0.79582 c 0.38903,0.2246 0.60158,0.4924 0.68936,0.83457 l 5.2e-4,0.002 5.2e-4,0.002 c 0.0937,0.34513 0.0386,0.7 -0.19844,1.11052 -0.23239,0.4025 -0.51226,0.62902 -0.86558,0.72761 -0.34021,0.0951 -0.67861,0.0448 -1.06764,-0.17984 l -1.37872,-0.79581 z m 139.74341,0.6227 c -0.18722,0.007 -0.3726,0.0349 -0.55552,0.0832 -0.73752,0.19493 -1.34739,0.72849 -1.81798,1.54358 l -1.96319,3.40082 c -0.47059,0.81509 -0.62885,1.61098 -0.42891,2.34715 0.19836,0.73036 0.70674,1.32825 1.47174,1.76992 0.765,0.44168 1.5369,0.58304 2.2686,0.38964 0.73751,-0.19493 1.3479,-0.72952 1.81849,-1.54461 l 1.97042,-3.41271 c 0.46658,-0.80815 0.62092,-1.59931 0.42117,-2.33475 -0.19836,-0.73037 -0.70674,-1.32824 -1.47175,-1.76991 -0.57375,-0.33126 -1.15141,-0.49348 -1.71307,-0.47233 z m -202.51012,0.68782 -0.0868,5.51077 -4.920112,2.86959 1.62109,0.93638 2.999812,-1.83296 5.2e-4,-10e-4 c 0.11137,-0.0694 0.22696,-0.14645 0.34313,-0.22479 -0.005,0.14834 -0.0109,0.2941 -0.0155,0.42943 l -0.093,3.49695 1.6521,0.95394 0.0661,-5.7583 4.69377,-2.76469 -1.6092,-0.92914 -2.76986,1.71772 -5.1e-4,0.001 c -0.1171,0.073 -0.24445,0.15616 -0.37517,0.24133 0.0134,-0.15246 0.0247,-0.30264 0.0294,-0.44132 l 0.001,10e-4 0.12557,-3.24579 z m 68.72345,0.3514 -4.88084,8.45323 2.31097,1.33428 c 0.55035,0.31774 1.09787,0.49349 1.63608,0.51522 0.54108,0.0257 1.05046,-0.0932 1.50482,-0.35605 0.46792,-0.26708 0.85458,-0.67114 1.156,-1.19321 l 1.8433,-3.19257 c 0.30142,-0.52208 0.45537,-1.05504 0.44803,-1.58802 7e-5,-0.52421 -0.15093,-1.0243 -0.44338,-1.4795 -0.28793,-0.45523 -0.71418,-0.84186 -1.26453,-1.15961 z m 133.95617,0.54673 c 0.2361,-0.0149 0.48783,0.0529 0.77514,0.21859 0.39111,0.22597 0.58719,0.47824 0.65423,0.77929 l 0.002,0.004 10e-4,0.004 c 0.0764,0.29944 0.0176,0.63943 -0.22221,1.05472 l -2.09083,3.62097 c -0.23977,0.41529 -0.50789,0.64183 -0.81235,0.73225 l -0.001,-5.1e-4 c -0.28963,0.0863 -0.60661,0.0392 -0.99943,-0.18759 -0.38363,-0.22149 -0.58489,-0.47256 -0.66249,-0.7736 -0.0735,-0.30861 -0.0116,-0.65384 0.2279,-1.06866 l 2.09031,-3.62097 c 0.23977,-0.4153 0.50448,-0.63631 0.80201,-0.71986 l 0.002,-5.1e-4 0.002,-5.2e-4 c 0.0762,-0.0226 0.15327,-0.0369 0.23203,-0.0419 z m -268.500927,0.42633 -7.095691,7.17476 1.480013,0.85421 1.759582,-1.82211 2.090312,1.20716 -0.698149,2.43448 1.468644,0.84801 2.67684,-9.72551 z m 205.751777,0.81236 -4.88032,8.45323 1.40819,0.81287 2.31355,-4.00751 c 0.39766,-0.68876 0.76032,-1.34195 1.09657,-1.97042 l -0.64027,2.80861 1.19166,0.68782 2.32131,-2.12907 c -0.19351,0.30525 -0.38824,0.61073 -0.57671,0.91467 l -0.001,10e-4 -0.001,0.002 c -0.27395,0.45745 -0.51465,0.86534 -0.72244,1.22525 l -2.31355,4.00751 1.40767,0.81287 4.88083,-8.45323 -1.85776,-1.07281 -2.58641,2.39831 0.82011,-3.41788 z m -70.52902,0.36793 0.86971,0.5023 c 0.44427,0.2565 0.68671,0.55276 0.7829,0.90692 l 5.2e-4,0.002 5.1e-4,0.002 c 0.1029,0.35981 0.047,0.73055 -0.20257,1.16272 l -1.8433,3.19257 c -0.25412,0.44014 -0.55016,0.67791 -0.91209,0.76843 l -0.002,5.2e-4 -0.002,5.2e-4 c -0.3548,0.0938 -0.73292,0.0317 -1.17719,-0.2248 l -0.8692,-0.50229 z m 139.80542,0.66301 c -0.18852,0.004 -0.37531,0.0282 -0.55914,0.0734 -0.7364,0.18088 -1.33648,0.67914 -1.7756,1.43971 l -2.09083,3.62097 c -0.43912,0.76058 -0.57071,1.53059 -0.35915,2.25877 0.21124,0.72712 0.73238,1.3248 1.5105,1.77405 0.76425,0.44123 1.5347,0.588 2.26859,0.40773 l 0.002,-5.2e-4 0.001,-10e-4 c 0.73848,-0.18833 1.33838,-0.68496 1.77354,-1.43867 l 0.12867,-0.22221 -1.44125,-0.83199 -0.12816,0.22221 c -0.23908,0.4141 -0.50873,0.63721 -0.82011,0.7245 -0.29897,0.084 -0.6221,0.0341 -1.01492,-0.19275 -0.39128,-0.22591 -0.60499,-0.4866 -0.69608,-0.79943 -0.0787,-0.31236 -0.0212,-0.65613 0.21704,-1.06867 l 2.09031,-3.62097 c 0.23908,-0.4141 0.50578,-0.63213 0.81029,-0.71262 0.32205,-0.0851 0.65592,-0.0322 1.04748,0.19379 0.39155,0.22607 0.5929,0.48209 0.66662,0.79013 l 10e-4,0.004 5.1e-4,0.004 c 0.0825,0.30396 0.0272,0.64372 -0.21187,1.05782 l -0.12816,0.22221 1.44126,0.83199 0.12816,-0.22221 c 0.43459,-0.75273 0.5626,-1.51771 0.35243,-2.24431 -0.206,-0.73321 -0.71656,-1.33237 -1.48156,-1.77405 v -0.001 c -0.58359,-0.33693 -1.16716,-0.50685 -1.73271,-0.49455 z M 36.2474,266.69225 c -0.08442,0.27423 -0.164623,0.52589 -0.264583,0.87746 l -0.716753,2.5089 -1.460376,-0.84336 1.821595,-1.88568 -0.0016,5.2e-4 c 0.250746,-0.25657 0.4278,-0.44981 0.621668,-0.65784 z m 73.01518,0.0532 -0.77618,1.3441 2.20917,1.27537 -4.10466,7.10913 1.44126,0.83199 4.10465,-7.10913 2.20917,1.27538 0.77618,-1.34411 z m -67.695091,0.24236 -4.880839,8.45323 1.429886,0.82579 1.963705,-3.40134 0.969967,0.56017 -0.38344,4.31343 1.5875,0.91622 0.390674,-4.65346 c 0.497522,0.0519 0.993891,0.0514 1.452625,-0.15451 0.555296,-0.24928 1.005546,-0.67753 1.33997,-1.25677 0.284346,-0.4925 0.433443,-0.99774 0.433048,-1.50585 -3.93e-4,-0.50519 -0.142164,-0.98635 -0.417029,-1.42266 -0.271796,-0.44542 -0.668886,-0.81705 -1.177189,-1.11052 z m 136.251631,0.0124 -4.88032,8.45375 1.44125,0.83199 2.05259,-3.55534 3.46852,2.00246 0.77567,-1.34255 -3.49075,-2.01538 1.27693,-2.21124 3.77651,2.18075 0.77618,-1.34411 z m 138.90263,1.54306 -0.0868,5.51077 -4.92063,2.8696 1.62264,0.93689 2.99878,-1.834 h 0.002 c 0.11106,-0.0692 0.22679,-0.14618 0.34262,-0.22427 -0.005,0.14767 -0.0114,0.29311 -0.016,0.42788 l 0.001,5.1e-4 -0.093,3.49747 1.65106,0.95291 0.0661,-5.75831 4.6948,-2.76417 -1.60972,-0.92966 -2.76934,1.71824 -0.002,5.2e-4 c -0.11679,0.0728 -0.2438,0.15539 -0.37414,0.2403 0.0134,-0.1518 0.0253,-0.30112 0.03,-0.43925 l 0.12661,-3.24477 z m -67.08686,0.59324 -4.88084,8.45375 5.08703,2.93677 0.77618,-1.3441 -3.64577,-2.10478 4.10466,-7.10913 z m -207.406977,0.009 1.278992,0.73845 c 0.365832,0.21122 0.566048,0.46672 0.651123,0.79892 0.08466,0.3306 0.03023,0.66737 -0.194303,1.05627 -0.219545,0.38026 -0.484552,0.59818 -0.820105,0.69763 -0.329656,0.0918 -0.649696,0.045 -1.014925,-0.16588 l -1.278992,-0.73846 z"/>
        <use
                x="0"
                y="0"
                href="#files"
                transform="translate(340.57525,1.7451984e-4)"/>
        <use
                x="0"
                y="0"
                href="#files"
                transform="translate(340.57525,301.05852)"/>
        <use
                x="0"
                y="0"
                href="#files"
                transform="translate(-3.7639146e-5,301.05852)"/>
    </g>
</svg>
